<?xml version="1.0" encoding="UTF-8"?>
<svg version="1.1" xmlns="http://www.w3.org/2000/svg" width="470" height="147">
<path d="M0 0 C155.1 0 310.2 0 470 0 C470 48.51 470 97.02 470 147 C314.9 147 159.8 147 0 147 C0 98.49 0 49.98 0 0 Z " fill="#FAFAFE" transform="translate(0,0)"/>
<path d="M0 0 C0 0.66 0 1.32 0 2 C3.41656024 2.16677282 3.41656024 2.16677282 7 2 C7.66 1.34 8.32 0.68 9 0 C12 0.125 12 0.125 15 1 C16.375 3.0625 16.375 3.0625 17 5 C18.98567708 4.93489583 20.97135417 4.86979167 22.95703125 4.8046875 C25 5 25 5 28 7 C29.1875 10.625 29.1875 10.625 30 14 C30.94875 14.061875 31.8975 14.12375 32.875 14.1875 C36 15 36 15 37.4375 17.25 C38.04935993 20.2413152 37.78958417 22.07853857 37 25 C37 25.66 37 26.32 37 27 C38.65 27.33 40.3 27.66 42 28 C42.6875 30.8125 42.6875 30.8125 43 34 C42.0206121 35.02019573 41.02104551 36.02149805 40 37 C40.24205349 40.31818985 40.24205349 40.31818985 42 43 C42.04080783 44.99958364 42.04254356 47.00045254 42 49 C40.35 49.33 38.7 49.66 37 50 C37 50.9075 37 51.815 37 52.75 C37 60 37 60 36 62 C34.865625 62.226875 33.73125 62.45375 32.5625 62.6875 C31.386875 63.120625 30.21125 63.55375 29 64 C27.45913678 67.51400668 27.45913678 67.51400668 27 71 C23.59437148 71.77842938 20.49234244 72.09978121 17 72 C16.79375 72.639375 16.5875 73.27875 16.375 73.9375 C15 76 15 76 12 76.875 C11.01 76.91625 10.02 76.9575 9 77 C8.01 76.01 8.01 76.01 7 75 C3.41656024 74.83322718 3.41656024 74.83322718 0 75 C0 75.66 0 76.32 0 77 C-2.3125 77.3125 -2.3125 77.3125 -5 77 C-5.6496875 75.7625 -5.6496875 75.7625 -6.3125 74.5 C-6.869375 73.675 -7.42625 72.85 -8 72 C-10.09721927 71.7041817 -11.95784578 71.80826861 -14.0625 72.01953125 C-16 72 -16 72 -19 70 C-20.1875 66.375 -20.1875 66.375 -21 63 C-21.94875 62.938125 -22.8975 62.87625 -23.875 62.8125 C-27 62 -27 62 -28.375 59.8125 C-29.04761131 56.7857491 -29.14377622 54.09118874 -29 51 C-29.639375 50.79375 -30.27875 50.5875 -30.9375 50.375 C-33 49 -33 49 -33.75 45.875 C-33.8325 44.92625 -33.915 43.9775 -34 43 C-33.01 42.505 -33.01 42.505 -32 42 C-32 39.69 -32 37.38 -32 35 C-32.66 34.67 -33.32 34.34 -34 34 C-33.75 31.125 -33.75 31.125 -33 28 C-30.9375 26.625 -30.9375 26.625 -29 26 C-29.061875 24.1128125 -29.061875 24.1128125 -29.125 22.1875 C-29.2390374 18.70935927 -29.05925681 18.08888522 -27 15 C-25.845 14.7525 -24.69 14.505 -23.5 14.25 C-22.345 13.8375 -21.19 13.425 -20 13 C-18.45913678 9.48599332 -18.45913678 9.48599332 -18 6 C-14.61981469 4.95994298 -11.5219721 4.91995518 -8 5 C-7.731875 4.360625 -7.46375 3.72125 -7.1875 3.0625 C-5.37365074 -0.08786977 -3.47812867 0 0 0 Z " fill="#110DFA" transform="translate(103,42)"/>
<path d="M0 0 C1.32 0.66 2.64 1.32 4 2 C3.67 2.99 3.34 3.98 3 5 C2.34 5 1.68 5 1 5 C1.495 5.45375 1.99 5.9075 2.5 6.375 C4 8 4 8 4 10 C3.34 10 2.68 10 2 10 C2 16.6 2 23.2 2 30 C2.99 29.67 3.98 29.34 5 29 C8.67106043 28.86718305 12.32519714 28.95676703 16 29 C16 22.73 16 16.46 16 10 C15.01 10 14.02 10 13 10 C13 9.34 13 8.68 13 8 C13.99 8 14.98 8 16 8 C16 7.01 16 6.02 16 5 C15.01 4.67 14.02 4.34 13 4 C13 3.34 13 2.68 13 2 C16.75 0.875 16.75 0.875 19 2 C19 1.34 19 0.68 19 0 C20.32 0.33 21.64 0.66 23 1 C23 1.66 23 2.32 23 3 C23.99 3.33 24.98 3.66 26 4 C24.35 4.33 22.7 4.66 21 5 C21 6.32 21 7.64 21 9 C23.97 9 26.94 9 30 9 C29.67 10.65 29.34 12.3 29 14 C28.34 13.01 27.68 12.02 27 11 C23.93443402 10.26656572 23.93443402 10.26656572 21 10 C21.04125 11.2375 21.0825 12.475 21.125 13.75 C21.13658291 17.01637962 20.8568702 19.2146947 19 22 C18.505 18.535 18.505 18.535 18 15 C17.67 19.62 17.34 24.24 17 29 C22.7018576 27.59628479 22.7018576 27.59628479 25 25 C25 26.32 25 27.64 25 29 C25.99 29 26.98 29 28 29 C28.33 27.68 28.66 26.36 29 25 C29.19601608 26.74906659 29.38147403 28.49931846 29.5625 30.25 C29.71912109 31.71179687 29.71912109 31.71179687 29.87890625 33.203125 C29.98974468 35.7631352 29.77738092 37.58148159 29 40 C29.99 40.495 29.99 40.495 31 41 C31.125 47.75 31.125 47.75 30 50 C29.01 50 28.02 50 27 50 C27 49.34 27 48.68 27 48 C26.34 48 25.68 48 25 48 C24.505 48.99 24.505 48.99 24 50 C24 49.34 24 48.68 24 48 C22.35 48 20.7 48 19 48 C19 46.68 19 45.36 19 44 C18.34 44 17.68 44 17 44 C17 55.55 17 67.1 17 79 C18.32 79.33 19.64 79.66 21 80 C21 84.29 21 88.58 21 93 C13.08 93 5.16 93 -3 93 C-3 88.71 -3 84.42 -3 80 C-1.515 79.505 -1.515 79.505 0 79 C0.33 74.71 0.66 70.42 1 66 C0.01 66 -0.98 66 -2 66 C-2 65 -2 64 -2 63 C-2.66 63 -3.32 63 -4 63 C-4 64.32 -4 65.64 -4 67 C-4.66 67 -5.32 67 -6 67 C-6 75.58 -6 84.16 -6 93 C-13.59 93 -21.18 93 -29 93 C-29 88.71 -29 84.42 -29 80 C-27.515 79.505 -27.515 79.505 -26 79 C-26.495 61.675 -26.495 61.675 -27 44 C-27.66 43.67 -28.32 43.34 -29 43 C-29 38.71 -29 34.42 -29 30 C-28.01 30 -27.02 30 -26 30 C-26 23.07 -26 16.14 -26 9 C-26.66 9 -27.32 9 -28 9 C-28 15.6 -28 22.2 -28 29 C-28.33 29 -28.66 29 -29 29 C-29.02505615 28.25314941 -29.0501123 27.50629883 -29.07592773 26.73681641 C-29.19168213 23.36602733 -29.31450128 19.99553217 -29.4375 16.625 C-29.47681641 15.449375 -29.51613281 14.27375 -29.55664062 13.0625 C-29.59853516 11.94101562 -29.64042969 10.81953125 -29.68359375 9.6640625 C-29.72025146 8.62717285 -29.75690918 7.5902832 -29.79467773 6.52197266 C-29.84164223 4.00574834 -29.84164223 4.00574834 -31 2 C-28.1875 1.3125 -28.1875 1.3125 -25 1 C-23.125 2.4375 -23.125 2.4375 -22 4 C-22.99 4 -23.98 4 -25 4 C-25 5.32 -25 6.64 -25 8 C-20.05 8 -15.1 8 -10 8 C-10 6.68 -10 5.36 -10 4 C-10.99 3.67 -11.98 3.34 -13 3 C-11.68 2.34 -10.36 1.68 -9 1 C-8.87625 2.175625 -8.87625 2.175625 -8.75 3.375 C-8.27193661 6.14749104 -8.27193661 6.14749104 -5.9375 7.3125 C-5.298125 7.539375 -4.65875 7.76625 -4 8 C-4 10.64 -4 13.28 -4 16 C-3.34 16 -2.68 16 -2 16 C-2 16.99 -2 17.98 -2 19 C-2.66 19 -3.32 19 -4 19 C-4 22.63 -4 26.26 -4 30 C-2.68 30 -1.36 30 0 30 C-0.05329468 28.84999512 -0.05329468 28.84999512 -0.10766602 27.67675781 C-0.26532506 24.20141557 -0.41401087 20.72574561 -0.5625 17.25 C-0.61857422 16.0434375 -0.67464844 14.836875 -0.73242188 13.59375 C-0.78076172 12.43359375 -0.82910156 11.2734375 -0.87890625 10.078125 C-0.9260376 9.00981445 -0.97316895 7.94150391 -1.02172852 6.84082031 C-1.00254744 4.33305593 -0.74499559 2.37796573 0 0 Z " fill="#0704FA" transform="translate(346,26)"/>
<path d="M0 0 C2.96175123 0.61277612 4.38058783 1.25372522 7 3 C6.0409375 3.1546875 6.0409375 3.1546875 5.0625 3.3125 C4.381875 3.539375 3.70125 3.76625 3 4 C2.67 4.99 2.34 5.98 2 7 C6.95 7 11.9 7 17 7 C17 6.01 17 5.02 17 4 C15.68 3.34 14.36 2.68 13 2 C18.87387819 0.18443765 23.95323515 -0.55559926 30 1 C30.66 1.66 31.32 2.32 32 3 C30.35 3.33 28.7 3.66 27 4 C27 11.92 27 19.84 27 28 C29.31 27.67 31.62 27.34 34 27 C39.57894737 26.78947368 39.57894737 26.78947368 42 28 C41.89049976 24.0410768 41.75978332 20.08313674 41.625 16.125 C41.5940625 14.99707031 41.563125 13.86914062 41.53125 12.70703125 C41.47324219 11.09248047 41.47324219 11.09248047 41.4140625 9.4453125 C41.3826416 8.45031738 41.3512207 7.45532227 41.31884766 6.43017578 C41.22752917 3.82145483 41.22752917 3.82145483 39 2 C40.32 1.34 41.64 0.68 43 0 C43 2.64 43 5.28 43 8 C44.051875 7.7215625 44.051875 7.7215625 45.125 7.4375 C48.33888698 6.94843024 50.83560336 7.33768442 54 8 C53.67 8.99 53.34 9.98 53 11 C52.01 11 51.02 11 50 11 C50 10.34 50 9.68 50 9 C47.69 9 45.38 9 43 9 C43.495 17.91 43.495 17.91 44 27 C45.98 26.67 47.96 26.34 50 26 C51.43637698 24.04836882 51.43637698 24.04836882 52 22 C52.99 24.31 53.98 26.62 55 29 C54.01 29.495 54.01 29.495 53 30 C52.79029441 34.14093698 52.79029441 34.14093698 54 38 C52.02 38.495 52.02 38.495 50 39 C50.495 34.05 50.495 34.05 51 29 C48.36 29 45.72 29 43 29 C43.185625 30.051875 43.37125 31.10375 43.5625 32.1875 C43.95079331 35.57119882 43.88247485 37.76425888 43 41 C43.99 41.33 44.98 41.66 46 42 C45.01 42 44.02 42 43 42 C44.65 42.33 46.3 42.66 48 43 C48 43.66 48 44.32 48 45 C48.66 45 49.32 45 50 45 C50.33 43.35 50.66 41.7 51 40 C51.66 40.99 52.32 41.98 53 43 C52.5625 45.0625 52.5625 45.0625 52 47 C52.33 47.66 52.66 48.32 53 49 C52.01 49.33 51.02 49.66 50 50 C50 49.01 50 48.02 50 47 C49.34 47 48.68 47 48 47 C48 47.66 48 48.32 48 49 C47.01 49 46.02 49 45 49 C45 48.34 45 47.68 45 47 C44.34 47 43.68 47 43 47 C43 48.32 43 49.64 43 51 C46.3 51 49.6 51 53 51 C52.67 52.65 52.34 54.3 52 56 C51.34 54.68 50.68 53.36 50 52 C47.69 52 45.38 52 43 52 C43 56.62 43 61.24 43 66 C30.625 66.495 30.625 66.495 18 67 C18 69.97 18 72.94 18 76 C18.66 76 19.32 76 20 76 C20 76.66 20 77.32 20 78 C22.53744315 77.45291273 22.53744315 77.45291273 25 76 C25.33 74.02 25.66 72.04 26 70 C31.61 70 37.22 70 43 70 C43 70.99 43 71.98 43 73 C45.97 72.505 45.97 72.505 49 72 C49.33 70.02 49.66 68.04 50 66 C49.01 65.505 49.01 65.505 48 65 C48.66 65 49.32 65 50 65 C50.495 63.515 50.495 63.515 51 62 C51.99 62.495 51.99 62.495 53 63 C53 64.32 53 65.64 53 67 C53.99 67.33 54.98 67.66 56 68 C56 68.66 56 69.32 56 70 C54.515 70.495 54.515 70.495 53 71 C53.020625 71.94875 53.04125 72.8975 53.0625 73.875 C53 77 53 77 52 79 C51.34 79 50.68 79 50 79 C50 77.68 50 76.36 50 75 C47.69 75 45.38 75 43 75 C43 80.28 43 85.56 43 91 C44.32 91 45.64 91 47 91 C47.495 89.02 47.495 89.02 48 87 C48.33 87.99 48.66 88.98 49 90 C49.99 89.01 50.98 88.02 52 87 C52.33 88.32 52.66 89.64 53 91 C54.98 91.495 54.98 91.495 57 92 C55.68 92 54.36 92 53 92 C53.33 93.65 53.66 95.3 54 97 C51.03 97.495 51.03 97.495 48 98 C48 98.66 48 99.32 48 100 C46.68 99.67 45.36 99.34 44 99 C44 97.68 44 96.36 44 95 C44.99 95 45.98 95 47 95 C47 94.34 47 93.68 47 93 C45.68 93 44.36 93 43 93 C43 95.31 43 97.62 43 100 C42.67 99.34 42.34 98.68 42 98 C38.95418731 97.53045739 38.95418731 97.53045739 35.4375 97.375 C34.23996094 97.30023438 33.04242188 97.22546875 31.80859375 97.1484375 C30.41833984 97.07496094 30.41833984 97.07496094 29 97 C29 96.67 29 96.34 29 96 C35.435 95.505 35.435 95.505 42 95 C41.67 94.34 41.34 93.68 41 93 C38.87423218 92.53348793 38.87423218 92.53348793 36.4375 92.375 C35.61121094 92.30023438 34.78492188 92.22546875 33.93359375 92.1484375 C32.97646484 92.07496094 32.97646484 92.07496094 32 92 C32 91.67 32 91.34 32 91 C35.3 91 38.6 91 42 91 C41.505 86.545 41.505 86.545 41 82 C40.67 83.093125 40.34 84.18625 40 85.3125 C38.57792076 88.51378697 38.09481228 88.94887573 34.8125 90.71875 C28.42525145 92.87646767 21.65309681 92.31456698 15 92.1875 C13.63933774 92.17242476 12.27865931 92.15874138 10.91796875 92.14648438 C7.61156157 92.11130983 4.30599316 92.06208288 1 92 C1 92.99 1 93.98 1 95 C9.58 95 18.16 95 27 95 C27 95.99 27 96.98 27 98 C25.87972412 97.99214478 25.87972412 97.99214478 24.73681641 97.98413086 C21.36621943 97.96339599 17.99563586 97.95035101 14.625 97.9375 C13.449375 97.92912109 12.27375 97.92074219 11.0625 97.91210938 C9.38027344 97.90727539 9.38027344 97.90727539 7.6640625 97.90234375 C6.62717285 97.89710693 5.5902832 97.89187012 4.52197266 97.88647461 C2.0040332 97.82859185 2.0040332 97.82859185 0 99 C0 96.69 0 94.38 0 92 C-1.32 92 -2.64 92 -4 92 C-4 92.99 -4 93.98 -4 95 C-3.01 95 -2.02 95 -1 95 C-1.33 96.32 -1.66 97.64 -2 99 C-3.98 99.495 -3.98 99.495 -6 100 C-7.125 97.6875 -7.125 97.6875 -8 95 C-7.34 94.01 -6.68 93.02 -6 92 C-6.99 92 -7.98 92 -9 92 C-9 91.01 -9 90.02 -9 89 C-6.525 88.505 -6.525 88.505 -4 88 C-4 88.99 -4 89.98 -4 91 C-2.68 91 -1.36 91 0 91 C0 70.54 0 50.08 0 29 C0.66 29.33 1.32 29.66 2 30 C2.40729228 32.32156597 2.74438677 34.6568787 3 37 C3.33 35.35 3.66 33.7 4 32 C4.99 32 5.98 32 7 32 C7.969375 31.34 8.93875 30.68 9.9375 30 C13 28 13 28 17 28 C17 21.73 17 15.46 17 9 C14.36 9 11.72 9 9 9 C6.69 8.67 4.38 8.34 2 8 C2 13.61 2 19.22 2 25 C1.34 25 0.68 25 0 25 C0 19.72 0 14.44 0 9 C-2.97 8.505 -2.97 8.505 -6 8 C-6.33 20.54 -6.66 33.08 -7 46 C-7.66 46 -8.32 46 -9 46 C-8.99476318 44.96069336 -8.98952637 43.92138672 -8.98413086 42.85058594 C-8.9660102 38.98910384 -8.95454214 35.12762548 -8.94506836 31.26611328 C-8.94004431 29.59585945 -8.93322395 27.92561001 -8.92456055 26.25537109 C-8.91241054 23.85252804 -8.90675237 21.44974321 -8.90234375 19.046875 C-8.89460182 17.9294693 -8.89460182 17.9294693 -8.88670349 16.78948975 C-8.8863246 13.27587781 -9.14023766 10.43904937 -10 7 C-6.7 7 -3.4 7 0 7 C0 4.69 0 2.38 0 0 Z " fill="#0602F9" transform="translate(395,27)"/>
<path d="M0 0 C1.32 0 2.64 0 4 0 C4 0.66 4 1.32 4 2 C3.34 2 2.68 2 2 2 C2 3.32 2 4.64 2 6 C3.423125 5.938125 3.423125 5.938125 4.875 5.875 C8 6 8 6 10 8 C10 5.36 10 2.72 10 0 C12.97 0.495 12.97 0.495 16 1 C14.68 1.33 13.36 1.66 12 2 C12 3.32 12 4.64 12 6 C14.64 6 17.28 6 20 6 C20 6.33 20 6.66 20 7 C18.02 7.33 16.04 7.66 14 8 C14 9.32 14 10.64 14 12 C11.525 11.505 11.525 11.505 9 11 C8.67 16.61 8.34 22.22 8 28 C9.32 27.67 10.64 27.34 12 27 C13.77059047 27.96577662 15.53970806 28.93888004 17.25 30.0078125 C19.44005711 31.24949666 21.51332548 31.69858491 24 32 C24.04898438 32.63808594 24.09796875 33.27617188 24.1484375 33.93359375 C24.22320312 34.75988281 24.29796875 35.58617187 24.375 36.4375 C24.44460938 37.26121094 24.51421875 38.08492187 24.5859375 38.93359375 C24.79089844 39.95646484 24.79089844 39.95646484 25 41 C25.99 41.495 25.99 41.495 27 42 C27 42.33 27 42.66 27 43 C28.32 43 29.64 43 31 43 C31.33 41.68 31.66 40.36 32 39 C32.66 40.98 33.32 42.96 34 45 C34.66 43.68 35.32 42.36 36 41 C36.495 44.96 36.495 44.96 37 49 C35.68 49 34.36 49 33 49 C32.34 49.66 31.68 50.32 31 51 C30.505 49.02 30.505 49.02 30 47 C29.01 47 28.02 47 27 47 C27 54.26 27 61.52 27 69 C28.32 69 29.64 69 31 69 C31.495 67.515 31.495 67.515 32 66 C32.33 66.99 32.66 67.98 33 69 C33.99 69.495 33.99 69.495 35 70 C35 68.02 35 66.04 35 64 C35.33 64 35.66 64 36 64 C36.22162329 65.62324086 36.42689803 67.248721 36.625 68.875 C36.74101562 69.77992187 36.85703125 70.68484375 36.9765625 71.6171875 C36.98816406 72.79667969 36.98816406 72.79667969 37 74 C36.34 74.66 35.68 75.32 35 76 C35 75.01 35 74.02 35 73 C34.01 73 33.02 73 32 73 C32 74.98 32 76.96 32 79 C30 75.25 30 75.25 30 73 C29.01 73 28.02 73 27 73 C27 78.61 27 84.22 27 90 C28.65 90 30.3 90 32 90 C32 88.35 32 86.7 32 85 C32.99 86.485 32.99 86.485 34 88 C34.66 87.67 35.32 87.34 36 87 C36 87.99 36 88.98 36 90 C37.98 90 39.96 90 42 90 C42 84.39 42 78.78 42 73 C42.33 73 42.66 73 43 73 C43.495 80.92 43.495 80.92 44 89 C44.99 89.33 45.98 89.66 47 90 C47 88.02 47 86.04 47 84 C48.98362069 86.91708924 48.9876191 88.12380904 48.625 91.75 C48.41875 92.8225 48.2125 93.895 48 95 C48.66 95 49.32 95 50 95 C50.66 94.34 51.32 93.68 52 93 C52 93.66 52 94.32 52 95 C53.98 95.99 53.98 95.99 56 97 C51.94214651 99.02892674 49.3831949 99.16885197 45 98 C44.01 97.01 44.01 97.01 43 96 C43.99 95.67 44.98 95.34 46 95 C46.495 93.515 46.495 93.515 47 92 C41.555 92.99 41.555 92.99 36 94 C35.505 95.485 35.505 95.485 35 97 C34.34 97 33.68 97 33 97 C32.67 97.66 32.34 98.32 32 99 C31 98 31 98 30.9375 94.9375 C30.958125 93.968125 30.97875 92.99875 31 92 C29.68 92 28.36 92 27 92 C27.33 92.66 27.66 93.32 28 94 C28.66 94 29.32 94 30 94 C30 95.32 30 96.64 30 98 C28.02 98.495 28.02 98.495 26 99 C26 98.34 26 97.68 26 97 C25.34 97 24.68 97 24 97 C24.33 95.35 24.66 93.7 25 92 C22.36 91.67 19.72 91.34 17 91 C17 90.67 17 90.34 17 90 C19.97 90 22.94 90 26 90 C25.505 85.545 25.505 85.545 25 81 C22.84622436 83.62198774 21.59927826 85.64404172 21 89 C19.576875 89.2165625 19.576875 89.2165625 18.125 89.4375 C15.1065506 89.82935399 15.1065506 89.82935399 13 91 C10.91854396 91.09774794 8.83374453 91.12975741 6.75 91.125 C5.63109375 91.12757812 4.5121875 91.13015625 3.359375 91.1328125 C0.11074931 91.00437846 -2.84507543 90.79329028 -6 90 C-6.66 89.01 -7.32 88.02 -8 87 C-9.32 87 -10.64 87 -12 87 C-12.12375 86.154375 -12.2475 85.30875 -12.375 84.4375 C-12.9269062 80.99905348 -12.9269062 80.99905348 -14.01586914 77.76147461 C-15.56603797 71.83653016 -15.41023616 65.89604575 -15.42553711 59.81225586 C-15.43745482 57.57099702 -15.48673766 55.33247826 -15.53710938 53.09179688 C-15.68089567 40.05184232 -15.68089567 40.05184232 -11.10888672 34.46069336 C-9.72770445 32.90360937 -9.72770445 32.90360937 -9.6875 30 C-9.790625 29.34 -9.89375 28.68 -10 28 C-9.505 28.391875 -9.01 28.78375 -8.5 29.1875 C-5.02221571 30.31777989 -3.23514442 29.06224379 0.02734375 27.671875 C2.62208986 26.78811989 4.43767909 27.11920219 7 28 C6.814375 26.72125 6.62875 25.4425 6.4375 24.125 C5.875 20.25 5.875 20.25 7 18 C5.68 17.67 4.36 17.34 3 17 C2.67 18.98 2.34 20.96 2 23 C1.67 23 1.34 23 1 23 C1 21.35 1 19.7 1 18 C0.34 18 -0.32 18 -1 18 C-1 17.34 -1 16.68 -1 16 C0.98 15.34 2.96 14.68 5 14 C5.33 14.33 5.66 14.66 6 15 C6.33 14.01 6.66 13.02 7 12 C6.34 12 5.68 12 5 12 C5 11.01 5 10.02 5 9 C3.02 8.34 1.04 7.68 -1 7 C-0.34 6.67 0.32 6.34 1 6 C0.67 4.02 0.34 2.04 0 0 Z " fill="#0804FA" transform="translate(266,28)"/>
<path d="M0 0 C1.98 0 3.96 0 6 0 C6.33 0.99 6.66 1.98 7 3 C6.01 3.495 6.01 3.495 5 4 C4.67 4.99 4.34 5.98 4 7 C4.77714355 6.96447021 5.55428711 6.92894043 6.35498047 6.89233398 C9.86142966 6.73514471 13.36818176 6.58621847 16.875 6.4375 C18.09832031 6.38142578 19.32164062 6.32535156 20.58203125 6.26757812 C22.33193359 6.19506836 22.33193359 6.19506836 24.1171875 6.12109375 C25.73536377 6.05039673 25.73536377 6.05039673 27.38623047 5.97827148 C30 6 30 6 32 7 C34.204364 7.22950319 36.41392173 7.41075933 38.625 7.5625 C39.81351563 7.64628906 41.00203125 7.73007812 42.2265625 7.81640625 C43.14179688 7.87699219 44.05703125 7.93757813 45 8 C45.02465881 11.96930989 45.04284023 15.93859034 45.05493164 19.90795898 C45.05997057 21.25920386 45.06680177 22.61044326 45.07543945 23.96166992 C45.08752419 25.90020434 45.09269828 27.838778 45.09765625 29.77734375 C45.10289307 30.94515381 45.10812988 32.11296387 45.11352539 33.31616211 C45 36 45 36 44 37 C39.66469082 37.14393457 35.33842269 37.04212061 31 37 C31 31.72 31 26.44 31 21 C28.69 21 26.38 21 24 21 C24 40.14 24 59.28 24 79 C25.98 79 27.96 79 30 79 C30.02686553 80.97909398 30.04633375 82.95828971 30.0625 84.9375 C30.07410156 86.03964844 30.08570313 87.14179687 30.09765625 88.27734375 C30 91 30 91 29 92 C27.00035018 92.08758003 24.9976389 92.10696576 22.99609375 92.09765625 C21.17368164 92.09282227 21.17368164 92.09282227 19.31445312 92.08789062 C18.03505859 92.07951172 16.75566406 92.07113281 15.4375 92.0625 C14.15423828 92.05798828 12.87097656 92.05347656 11.54882812 92.04882812 C8.3658658 92.03699555 5.18292726 92.01905944 2 92 C2.33 87.71 2.66 83.42 3 79 C4.98 78.505 4.98 78.505 7 78 C7.33 59.19 7.66 40.38 8 21 C5.69 21 3.38 21 1 21 C1 25.95 1 30.9 1 36 C-3.62 36 -8.24 36 -13 36 C-13 26.43 -13 16.86 -13 7 C-8.05 7 -3.1 7 2 7 C2 6.01 2 5.02 2 4 C1.34 3.67 0.68 3.34 0 3 C0 2.01 0 1.02 0 0 Z " fill="#0804FA" transform="translate(184,27)"/>
<path d="M0 0 C0.82177734 -0.00128906 1.64355469 -0.00257812 2.49023438 -0.00390625 C3.34037109 -0.00003906 4.19050781 0.00382812 5.06640625 0.0078125 C5.91267578 0.00394531 6.75894531 0.00007813 7.63085938 -0.00390625 C8.86545898 -0.00197266 8.86545898 -0.00197266 10.125 0 C11.24152954 0.00169189 11.24152954 0.00169189 12.38061523 0.00341797 C14.62890625 0.1328125 14.62890625 0.1328125 19.62890625 1.1328125 C19.62890625 5.0928125 19.62890625 9.0528125 19.62890625 13.1328125 C17.97890625 13.1328125 16.32890625 13.1328125 14.62890625 13.1328125 C14.62890625 32.6028125 14.62890625 52.0728125 14.62890625 72.1328125 C16.27890625 72.1328125 17.92890625 72.1328125 19.62890625 72.1328125 C19.62890625 78.0728125 19.62890625 84.0128125 19.62890625 90.1328125 C20.28890625 90.1328125 20.94890625 90.1328125 21.62890625 90.1328125 C21.44328125 89.2046875 21.25765625 88.2765625 21.06640625 87.3203125 C20.62890625 84.1328125 20.62890625 84.1328125 21.62890625 81.1328125 C24.26890625 81.4628125 26.90890625 81.7928125 29.62890625 82.1328125 C29.13390625 83.6178125 29.13390625 83.6178125 28.62890625 85.1328125 C26.97890625 84.4728125 25.32890625 83.8128125 23.62890625 83.1328125 C23.29890625 85.4428125 22.96890625 87.7528125 22.62890625 90.1328125 C24.93890625 90.4628125 27.24890625 90.7928125 29.62890625 91.1328125 C29.62890625 91.4628125 29.62890625 91.7928125 29.62890625 92.1328125 C25.24305296 92.83454903 21.07099982 93.24115625 16.62890625 93.1328125 C16.62890625 92.1428125 16.62890625 91.1528125 16.62890625 90.1328125 C17.28890625 90.1328125 17.94890625 90.1328125 18.62890625 90.1328125 C18.62890625 88.8128125 18.62890625 87.4928125 18.62890625 86.1328125 C10.04890625 86.1328125 1.46890625 86.1328125 -7.37109375 86.1328125 C-7.04109375 88.1128125 -6.71109375 90.0928125 -6.37109375 92.1328125 C-9.34109375 92.6278125 -9.34109375 92.6278125 -12.37109375 93.1328125 C-13.7044147 90.4661706 -13.04211408 88.96600947 -12.37109375 86.1328125 C-14.02109375 85.8028125 -15.67109375 85.4728125 -17.37109375 85.1328125 C-17.37109375 84.4728125 -17.37109375 83.8128125 -17.37109375 83.1328125 C-15.72109375 83.4628125 -14.07109375 83.7928125 -12.37109375 84.1328125 C-12.37109375 82.1528125 -12.37109375 80.1728125 -12.37109375 78.1328125 C-11.71109375 78.1328125 -11.05109375 78.1328125 -10.37109375 78.1328125 C-10.37109375 80.7728125 -10.37109375 83.4128125 -10.37109375 86.1328125 C-9.71109375 86.1328125 -9.05109375 86.1328125 -8.37109375 86.1328125 C-8.37109375 81.5128125 -8.37109375 76.8928125 -8.37109375 72.1328125 C-6.72109375 72.1328125 -5.07109375 72.1328125 -3.37109375 72.1328125 C-3.37331436 71.45265076 -3.37553497 70.77248901 -3.37782288 70.07171631 C-3.39992879 62.99915084 -3.4150226 55.92659518 -3.42602539 48.85400391 C-3.43105732 46.21370037 -3.43788346 43.57339963 -3.4465332 40.93310547 C-3.45864854 37.14029248 -3.46433345 33.3475163 -3.46875 29.5546875 C-3.47391129 28.37227478 -3.47907257 27.18986206 -3.48439026 25.97161865 C-3.48446579 24.87077942 -3.48454132 23.76994019 -3.48461914 22.63574219 C-3.48683975 21.66755554 -3.48906036 20.6993689 -3.49134827 19.70184326 C-3.38158237 17.35688375 -3.03848409 15.37511841 -2.37109375 13.1328125 C-4.35109375 13.1328125 -6.33109375 13.1328125 -8.37109375 13.1328125 C-8.37109375 9.1728125 -8.37109375 5.2128125 -8.37109375 1.1328125 C-5.23387721 0.34850837 -3.13267513 0.0047542 0 0 Z " fill="#0B08FA" transform="translate(38.37109375,33.8671875)"/>
<path d="M0 0 C4.10746873 1.77367968 6.69875485 4.16459142 9 8 C9.73654211 12.034614 9.42172687 15.09629956 7.6875 18.8125 C5.21886433 22.01258327 3.89329386 23.70223538 0 25 C-4.79566077 25.39308695 -7.06907584 25.48270142 -11.375 23.25 C-14.40395108 20.65375621 -15.75437362 18.78318375 -16.30078125 14.81640625 C-16.32545885 10.07008034 -16.21307701 6.7670558 -13 3 C-8.94541622 -0.35951227 -5.0659497 -0.75165514 0 0 Z " fill="#FBFBFE" transform="translate(111,68)"/>
<path d="M0 0 C1.32 0.33 2.64 0.66 4 1 C4 1.66 4 2.32 4 3 C4.99 3.33 5.98 3.66 7 4 C5.35 4.33 3.7 4.66 2 5 C2 6.32 2 7.64 2 9 C4.97 9 7.94 9 11 9 C10.67 10.65 10.34 12.3 10 14 C9.34 13.01 8.68 12.02 8 11 C4.93443402 10.26656572 4.93443402 10.26656572 2 10 C2.04125 11.2375 2.0825 12.475 2.125 13.75 C2.13658291 17.01637962 1.8568702 19.2146947 0 22 C-0.33 19.69 -0.66 17.38 -1 15 C-1.33 19.62 -1.66 24.24 -2 29 C3.7018576 27.59628479 3.7018576 27.59628479 6 25 C6 26.32 6 27.64 6 29 C6.99 29 7.98 29 9 29 C9.33 27.68 9.66 26.36 10 25 C10.19601608 26.74906659 10.38147403 28.49931846 10.5625 30.25 C10.66691406 31.22453125 10.77132813 32.1990625 10.87890625 33.203125 C10.98974468 35.7631352 10.77738092 37.58148159 10 40 C10.66 40.33 11.32 40.66 12 41 C12.125 47.75 12.125 47.75 11 50 C10.01 50 9.02 50 8 50 C8 49.34 8 48.68 8 48 C7.34 48 6.68 48 6 48 C5.67 48.66 5.34 49.32 5 50 C5 49.34 5 48.68 5 48 C3.35 48 1.7 48 0 48 C0 46.68 0 45.36 0 44 C-0.99 43.67 -1.98 43.34 -3 43 C-3.765625 41.00390625 -3.765625 41.00390625 -4.25 38.5625 C-4.42015625 37.75941406 -4.5903125 36.95632812 -4.765625 36.12890625 C-5 34 -5 34 -4 32 C-6.475 32.495 -6.475 32.495 -9 33 C-9.33 32.34 -9.66 31.68 -10 31 C-11.32 30.34 -12.64 29.68 -14 29 C-10.37 29 -6.74 29 -3 29 C-3 22.73 -3 16.46 -3 10 C-3.99 10 -4.98 10 -6 10 C-6 9.34 -6 8.68 -6 8 C-5.01 8 -4.02 8 -3 8 C-3 7.01 -3 6.02 -3 5 C-3.99 4.67 -4.98 4.34 -6 4 C-6 3.34 -6 2.68 -6 2 C-2.25 0.875 -2.25 0.875 0 2 C0 1.34 0 0.68 0 0 Z " fill="#8F8EFC" transform="translate(365,26)"/>
<path d="M0 0 C4.29 0 8.58 0 13 0 C13 0.66 13 1.32 13 2 C13.66 2 14.32 2 15 2 C15.125 4.375 15.125 4.375 15 7 C14.34 7.66 13.68 8.32 13 9 C13.66 9.33 14.32 9.66 15 10 C15.66 9.34 16.32 8.68 17 8 C18.94090826 9.94090826 18.39919435 13.47293902 18.5625 16.0625 C18.68818359 17.99802734 18.68818359 17.99802734 18.81640625 19.97265625 C18.87699219 20.97167969 18.93757813 21.97070312 19 23 C18.01 23.33 17.02 23.66 16 24 C16 23.01 16 22.02 16 21 C10.72 21 5.44 21 0 21 C0 14.07 0 7.14 0 0 Z " fill="#FCFCFE" transform="translate(321,35)"/>
<path d="M0 0 C0.99 0.33 1.98 0.66 3 1 C3.33 1.99 3.66 2.98 4 4 C5.65 4.33 7.3 4.66 9 5 C9.18451025 21.8929385 9.18451025 21.8929385 8 29 C7.195625 29.12375 6.39125 29.2475 5.5625 29.375 C4.716875 29.58125 3.87125 29.7875 3 30 C2.67 30.66 2.34 31.32 2 32 C2.66 32.33 3.32 32.66 4 33 C4.33 32.34 4.66 31.68 5 31 C5.66 31.99 6.32 32.98 7 34 C6.01 34 5.02 34 4 34 C4 34.66 4 35.32 4 36 C-0.875 34.25 -0.875 34.25 -2 32 C-2.07092842 29.7927077 -2.08415025 27.58332548 -2.0625 25.375 C-2.05347656 24.18648437 -2.04445313 22.99796875 -2.03515625 21.7734375 C-2.02355469 20.85820313 -2.01195312 19.94296875 -2 19 C-0.68 19.33 0.64 19.66 2 20 C2 19.01 2 18.02 2 17 C1.34 16.67 0.68 16.34 0 16 C0 15.34 0 14.68 0 14 C-0.66 14 -1.32 14 -2 14 C-2.05389087 12.04196493 -2.09274217 10.08351091 -2.125 8.125 C-2.14820313 7.03445312 -2.17140625 5.94390625 -2.1953125 4.8203125 C-2 2 -2 2 0 0 Z " fill="#9C9BFC" transform="translate(269,70)"/>
<path d="M0 0 C3.22648897 0.2778523 6.0512003 -0.20129367 9.22265625 -0.80859375 C8.89265625 1.83140625 8.56265625 4.47140625 8.22265625 7.19140625 C8.88265625 7.19140625 9.54265625 7.19140625 10.22265625 7.19140625 C9.73034856 14.57602163 9.73034856 14.57602163 7.16015625 17.69140625 C6.52078125 18.18640625 5.88140625 18.68140625 5.22265625 19.19140625 C4.56265625 18.20140625 3.90265625 17.21140625 3.22265625 16.19140625 C1.57265625 16.85140625 -0.07734375 17.51140625 -1.77734375 18.19140625 C-1.90109375 17.67578125 -2.02484375 17.16015625 -2.15234375 16.62890625 C-2.67476191 14.59147542 -3.278915 12.57523221 -3.90234375 10.56640625 C-4.77734375 7.19140625 -4.77734375 7.19140625 -3.77734375 5.19140625 C-4.87046875 5.06765625 -5.96359375 4.94390625 -7.08984375 4.81640625 C-10.77734375 4.19140625 -10.77734375 4.19140625 -13.77734375 2.19140625 C-13.77734375 1.53140625 -13.77734375 0.87140625 -13.77734375 0.19140625 C-8.89034623 -0.74440179 -4.91599085 -0.66614627 0 0 Z " fill="#F2F2FE" transform="translate(293.77734375,54.80859375)"/>
<path d="M0 0 C1 1 1 1 1.125 3.5 C1 6 1 6 0 7 C-3.03657694 6.65623657 -5.99518528 6.27184366 -8.94921875 5.47265625 C-11.18472926 4.9574243 -13.20739727 4.83212845 -15.5 4.8125 C-16.62921875 4.79123047 -16.62921875 4.79123047 -17.78125 4.76953125 C-20.26120661 5.02713238 -21.8144682 5.8416229 -24 7 C-26.6875 7.1875 -26.6875 7.1875 -29 7 C-30 6 -30 6 -30.4375 3.6875 C-30 1 -30 1 -27.3125 -1.25 C-18.29211515 -6.01548634 -8.7007618 -4.93505623 0 0 Z " fill="#F5F5FE" transform="translate(122,56)"/>
<path d="M0 0 C2.6875 0.1875 2.6875 0.1875 4.546875 1.18359375 C8.38447834 2.98334568 12.53433155 2.54658308 16.6875 2.1875 C18.3619239 1.5405635 20.03052621 0.87790574 21.6875 0.1875 C25 0.5625 25 0.5625 27.6875 1.1875 C27.9375 3.5 27.9375 3.5 27.6875 6.1875 C24.27045644 9.87790704 19.42101131 10.89765785 14.55078125 11.4140625 C8.88244594 11.63169492 3.84852561 10.56615451 -1.3125 8.1875 C-3.3125 6.1875 -3.3125 6.1875 -3.5 3.625 C-3.25390577 0.42577499 -3.1883589 0.25851559 0 0 Z " fill="#F7F6FE" transform="translate(95.3125,97.8125)"/>
<path d="M0 0 C1.2065625 0.0309375 1.2065625 0.0309375 2.4375 0.0625 C3.27129516 2.98078304 3.65440739 4.53698454 2.4765625 7.390625 C1.335468 10.32486799 1.17005887 12.48995635 1.1875 15.625 C1.18234375 16.55441406 1.1771875 17.48382813 1.171875 18.44140625 C1.44599421 21.14631783 2.20918323 22.68076383 3.4375 25.0625 C3.0625 28.3125 3.0625 28.3125 2.4375 31.0625 C0.7875 31.0625 -0.8625 31.0625 -2.5625 31.0625 C-3.21084654 29.792947 -3.85607815 28.52180294 -4.5 27.25 C-4.85964844 26.54230469 -5.21929687 25.83460937 -5.58984375 25.10546875 C-8.27447998 19.46665451 -8.65407604 13.39180691 -6.703125 7.44140625 C-3.45420431 0.08424889 -3.45420431 0.08424889 0 0 Z " fill="#F4F4FE" transform="translate(86.5625,64.9375)"/>
<path d="M0 0 C2.625 0.375 2.625 0.375 4.375 2.625 C7.75500897 10.06101972 8.03428126 19.45952071 5.1875 27.125 C3.625 30.375 3.625 30.375 2.625 31.375 C0.125 31.5 0.125 31.5 -2.375 31.375 C-2.705 31.045 -3.035 30.715 -3.375 30.375 C-3.02863931 27.31548056 -2.64743002 24.34364006 -1.8125 21.375 C-0.61641346 15.90717582 -1.57717252 11.54375399 -3.375 6.375 C-3.5625 3.5625 -3.5625 3.5625 -3.375 1.375 C-2.375 0.375 -2.375 0.375 0 0 Z " fill="#F8F8FE" transform="translate(128.375,64.625)"/>
<path d="M0 0 C0.33 0.66 0.66 1.32 1 2 C0.01 2 -0.98 2 -2 2 C-2 3.32 -2 4.64 -2 6 C2.95 6 7.9 6 13 6 C13 4.68 13 3.36 13 2 C12.01 1.67 11.02 1.34 10 1 C11.32 0.34 12.64 -0.32 14 -1 C14.12375 0.175625 14.12375 0.175625 14.25 1.375 C14.72806339 4.14749104 14.72806339 4.14749104 17.0625 5.3125 C17.701875 5.539375 18.34125 5.76625 19 6 C19 8.64 19 11.28 19 14 C19.66 14 20.32 14 21 14 C21 14.99 21 15.98 21 17 C20.34 17 19.68 17 19 17 C19 20.63 19 24.26 19 28 C18.01 28 17.02 28 16 28 C15.67 24.04 15.34 20.08 15 16 C14.67 19.63 14.34 23.26 14 27 C13.67 27 13.34 27 13 27 C13 23.7 13 20.4 13 17 C12.01 16.67 11.02 16.34 10 16 C10.33 15.34 10.66 14.68 11 14 C11.66 14 12.32 14 13 14 C13 12.35 13 10.7 13 9 C12.34 9 11.68 9 11 9 C11 8.34 11 7.68 11 7 C6.71 7 2.42 7 -2 7 C-2 13.93 -2 20.86 -2 28 C-2.33 28 -2.66 28 -3 28 C-3 21.07 -3 14.14 -3 7 C-3.66 7 -4.32 7 -5 7 C-5 13.6 -5 20.2 -5 27 C-5.33 27 -5.66 27 -6 27 C-6.02505615 26.25314941 -6.0501123 25.50629883 -6.07592773 24.73681641 C-6.19168213 21.36602733 -6.31450128 17.99553217 -6.4375 14.625 C-6.47681641 13.449375 -6.51613281 12.27375 -6.55664062 11.0625 C-6.59853516 9.94101562 -6.64042969 8.81953125 -6.68359375 7.6640625 C-6.72025146 6.62717285 -6.75690918 5.5902832 -6.79467773 4.52197266 C-6.84164223 2.00574834 -6.84164223 2.00574834 -8 0 C-5.09660535 -1.45169732 -3.09125158 -0.72348441 0 0 Z " fill="#6A69FB" transform="translate(323,28)"/>
<path d="M0 0 C0.99 0 1.98 0 3 0 C3 0.99 3 1.98 3 3 C3.66 3 4.32 3 5 3 C5.625 4.8125 5.625 4.8125 6 7 C5.34 7.99 4.68 8.98 4 10 C0.875 10.1875 0.875 10.1875 -2 10 C-2 9.01 -2 8.02 -2 7 C-7.61 7 -13.22 7 -19 7 C-19 8.98 -19 10.96 -19 13 C-22 15 -22 15 -25 15 C-25 14.34 -25 13.68 -25 13 C-25.66 13 -26.32 13 -27 13 C-27.19412181 11.52168779 -27.38012131 10.04230684 -27.5625 8.5625 C-27.66691406 7.73878906 -27.77132813 6.91507812 -27.87890625 6.06640625 C-27.91886719 5.38449219 -27.95882813 4.70257813 -28 4 C-26.19605125 2.19605125 -23.43322201 2.76294211 -20.99609375 2.68359375 C-19.17368164 2.62075195 -19.17368164 2.62075195 -17.31445312 2.55664062 C-16.03505859 2.51732422 -14.75566406 2.47800781 -13.4375 2.4375 C-12.15423828 2.39431641 -10.87097656 2.35113281 -9.54882812 2.30664062 C-6.36600147 2.200152 -3.18309326 2.09814038 0 2 C0 1.34 0 0.68 0 0 Z " fill="#4F4DFA" transform="translate(440,90)"/>
<path d="M0 0 C0.33 0 0.66 0 1 0 C1 4.66666667 1 9.33333333 1 14 C-1.83269666 15.41634833 -4.47466438 15.3463005 -7.625 15.5625 C-8.81351562 15.64628906 -10.00203125 15.73007813 -11.2265625 15.81640625 C-12.14179688 15.87699219 -13.05703125 15.93757813 -14 16 C-14 15.34 -14 14.68 -14 14 C-14.93779297 14.24363281 -14.93779297 14.24363281 -15.89453125 14.4921875 C-20.17049339 15.19140143 -24.36258776 15.14455499 -28.6875 15.125 C-29.9878418 15.13080078 -29.9878418 15.13080078 -31.31445312 15.13671875 C-32.14267578 15.13542969 -32.97089844 15.13414063 -33.82421875 15.1328125 C-34.57791748 15.13168457 -35.33161621 15.13055664 -36.1081543 15.12939453 C-38 15 -38 15 -40 14 C-40 13.01 -40 12.02 -40 11 C-32.09800544 10.24227449 -24.31326342 9.88376955 -16.3828125 10.125 C-12.62526421 10.19277141 -10.25995152 9.81901015 -7 8 C-5.68 8 -4.36 8 -3 8 C-2.814375 6.8553125 -2.814375 6.8553125 -2.625 5.6875 C-2 3 -2 3 0 0 Z " fill="#EAEAFE" transform="translate(436,108)"/>
<path d="M0 0 C0 2.64 0 5.28 0 8 C1.051875 7.7215625 1.051875 7.7215625 2.125 7.4375 C5.33888698 6.94843024 7.83560336 7.33768442 11 8 C10.67 8.99 10.34 9.98 10 11 C9.01 11 8.02 11 7 11 C7 10.34 7 9.68 7 9 C4.69 9 2.38 9 0 9 C0.33 14.94 0.66 20.88 1 27 C2.98 26.67 4.96 26.34 7 26 C8.43637698 24.04836882 8.43637698 24.04836882 9 22 C9.99 24.31 10.98 26.62 12 29 C11.34 29.33 10.68 29.66 10 30 C9.79029441 34.14093698 9.79029441 34.14093698 11 38 C9.02 38.495 9.02 38.495 7 39 C7.33 35.7 7.66 32.4 8 29 C5.36 29 2.72 29 0 29 C0.185625 30.051875 0.37125 31.10375 0.5625 32.1875 C0.95079331 35.57119882 0.88247485 37.76425888 0 41 C0.99 41.33 1.98 41.66 3 42 C1.02 42.495 1.02 42.495 -1 43 C-1.1959375 42.41992188 -1.391875 41.83984375 -1.59375 41.2421875 C-4.0577261 34.80611201 -7.17617644 31.60455099 -13 28 C-8.9681204 26.90039647 -4.86754137 26.06622932 -1 28 C-1.10950024 24.0410768 -1.24021668 20.08313674 -1.375 16.125 C-1.4059375 14.99707031 -1.436875 13.86914062 -1.46875 12.70703125 C-1.50742187 11.63066406 -1.54609375 10.55429687 -1.5859375 9.4453125 C-1.6173584 8.45031738 -1.6487793 7.45532227 -1.68115234 6.43017578 C-1.77247083 3.82145483 -1.77247083 3.82145483 -4 2 C-1 0 -1 0 0 0 Z " fill="#6D6CFB" transform="translate(438,27)"/>
<path d="M0 0 C0.33 0 0.66 0 1 0 C1.495 7.92 1.495 7.92 2 16 C2.99 16.33 3.98 16.66 5 17 C5 15.02 5 13.04 5 11 C6.98362069 13.91708924 6.9876191 15.12380904 6.625 18.75 C6.315625 20.35875 6.315625 20.35875 6 22 C6.66 22 7.32 22 8 22 C8.66 21.34 9.32 20.68 10 20 C10 20.66 10 21.32 10 22 C11.32 22.66 12.64 23.32 14 24 C9.94214651 26.02892674 7.3831949 26.16885197 3 25 C2.34 24.34 1.68 23.68 1 23 C1.99 22.67 2.98 22.34 4 22 C4.33 21.01 4.66 20.02 5 19 C1.37 19.66 -2.26 20.32 -6 21 C-6.33 21.99 -6.66 22.98 -7 24 C-7.66 24 -8.32 24 -9 24 C-9.33 24.66 -9.66 25.32 -10 26 C-11 25 -11 25 -11.0625 21.9375 C-11.0315625 20.4834375 -11.0315625 20.4834375 -11 19 C-12.32 19 -13.64 19 -15 19 C-14.67 19.66 -14.34 20.32 -14 21 C-13.34 21 -12.68 21 -12 21 C-12 22.32 -12 23.64 -12 25 C-13.32 25.33 -14.64 25.66 -16 26 C-16 25.34 -16 24.68 -16 24 C-16.66 24 -17.32 24 -18 24 C-17.67 22.35 -17.34 20.7 -17 19 C-19.64 18.67 -22.28 18.34 -25 18 C-25 17.67 -25 17.34 -25 17 C-14.44191344 15.66742597 -14.44191344 15.66742597 -10 17 C-10 15.35 -10 13.7 -10 12 C-9.01 13.485 -9.01 13.485 -8 15 C-7.34 14.67 -6.68 14.34 -6 14 C-6 14.99 -6 15.98 -6 17 C-4.02 17 -2.04 17 0 17 C0 11.39 0 5.78 0 0 Z " fill="#6361FB" transform="translate(308,101)"/>
<path d="M0 0 C2.64 0 5.28 0 8 0 C8 0.66 8 1.32 8 2 C7.34 2 6.68 2 6 2 C6 2.99 6 3.98 6 5 C6.66 5 7.32 5 8 5 C8 11.27 8 17.54 8 24 C5.36 24 2.72 24 0 24 C0 17.73 0 11.46 0 5 C0.99 5 1.98 5 3 5 C3 4.01 3 3.02 3 2 C2.01 2 1.02 2 0 2 C0 1.34 0 0.68 0 0 Z " fill="#C6C5FD" transform="translate(413,31)"/>
<path d="M0 0 C0.33 0 0.66 0 1 0 C1.39036513 1.60049704 1.76178619 3.20562371 2.125 4.8125 C2.33382813 5.70582031 2.54265625 6.59914063 2.7578125 7.51953125 C3 10 3 10 1 13 C1 16.29227921 1.15014743 18.85554549 2 22 C2.66 22.33 3.32 22.66 4 23 C1.36 23 -1.28 23 -4 23 C-4 24.65 -4 26.3 -4 28 C-2.68 28.33 -1.36 28.66 0 29 C-3.45029042 31.30019361 -4.94554358 31.43132515 -9 31 C-9.66 30.01 -10.32 29.02 -11 28 C-10.01 26.515 -10.01 26.515 -9 25 C-8.34 25 -7.68 25 -7 25 C-7 25.66 -7 26.32 -7 27 C-6.34 27 -5.68 27 -5 27 C-5 25.68 -5 24.36 -5 23 C-5.66 23 -6.32 23 -7 23 C-7 18.71 -7 14.42 -7 10 C-5.02 9.34 -3.04 8.68 -1 8 C-0.67 5.36 -0.34 2.72 0 0 Z " fill="#E3E3FE" transform="translate(374,96)"/>
<path d="M0 0 C0.66 0.33 1.32 0.66 2 1 C2.18369141 1.92232422 2.18369141 1.92232422 2.37109375 2.86328125 C3.2205865 5.74944605 4.61324824 6.50714915 7.0625 8.1875 C8.38746868 9.10729372 9.70365218 10.0402892 11 11 C11 11.33 11 11.66 11 12 C7.37 12 3.74 12 0 12 C0 12.99 0 13.98 0 15 C8.58 15 17.16 15 26 15 C26 15.99 26 16.98 26 18 C25.25314941 17.99476318 24.50629883 17.98952637 23.73681641 17.98413086 C20.36621943 17.96339599 16.99563586 17.95035101 13.625 17.9375 C12.449375 17.92912109 11.27375 17.92074219 10.0625 17.91210938 C8.94101562 17.90888672 7.81953125 17.90566406 6.6640625 17.90234375 C5.62717285 17.89710693 4.5902832 17.89187012 3.52197266 17.88647461 C1.0040332 17.82859185 1.0040332 17.82859185 -1 19 C-1 16.69 -1 14.38 -1 12 C-2.32 12 -3.64 12 -5 12 C-5 12.99 -5 13.98 -5 15 C-4.01 15 -3.02 15 -2 15 C-2.33 16.32 -2.66 17.64 -3 19 C-4.32 19.33 -5.64 19.66 -7 20 C-8.125 17.6875 -8.125 17.6875 -9 15 C-8.34 14.01 -7.68 13.02 -7 12 C-7.99 12 -8.98 12 -10 12 C-10 11.01 -10 10.02 -10 9 C-8.35 8.67 -6.7 8.34 -5 8 C-5 8.99 -5 9.98 -5 11 C-3.68 11 -2.36 11 -1 11 C-1.01160156 10.37351562 -1.02320313 9.74703125 -1.03515625 9.1015625 C-1.04417969 8.28429687 -1.05320312 7.46703125 -1.0625 6.625 C-1.07410156 5.81289062 -1.08570313 5.00078125 -1.09765625 4.1640625 C-1 2 -1 2 0 0 Z " fill="#5F5EFA" transform="translate(396,107)"/>
<path d="M0 0 C2.31 0 4.62 0 7 0 C7 0.66 7 1.32 7 2 C7.99 2 8.98 2 10 2 C10.33 5.3 10.66 8.6 11 12 C10.01 12.495 10.01 12.495 9 13 C8.7525 13.825 8.505 14.65 8.25 15.5 C7.8375 16.325 7.425 17.15 7 18 C3.9375 18.875 3.9375 18.875 1 19 C0 18 0 18 -0.11352539 16.23413086 C-0.10828857 15.48526611 -0.10305176 14.73640137 -0.09765625 13.96484375 C-0.09443359 13.15595703 -0.09121094 12.34707031 -0.08789062 11.51367188 C-0.07951172 10.66353516 -0.07113281 9.81339844 -0.0625 8.9375 C-0.05798828 8.08349609 -0.05347656 7.22949219 -0.04882812 6.34960938 C-0.03700373 4.23304337 -0.01906769 2.11651315 0 0 Z " fill="#F4F4FE" transform="translate(438,36)"/>
<path d="M0 0 C2.31 0 4.62 0 7 0 C6.67 5.61 6.34 11.22 6 17 C4.35 16.67 2.7 16.34 1 16 C1 29.53 1 43.06 1 57 C2.32 57.33 3.64 57.66 5 58 C3.35 58 1.7 58 0 58 C0 38.86 0 19.72 0 0 Z " fill="#C9C9FD" transform="translate(208,48)"/>
<path d="M0 0 C2.96175123 0.61277612 4.38058783 1.25372522 7 3 C6.0409375 3.1546875 6.0409375 3.1546875 5.0625 3.3125 C4.381875 3.539375 3.70125 3.76625 3 4 C2.67 4.99 2.34 5.98 2 7 C2.87011719 6.98259766 2.87011719 6.98259766 3.7578125 6.96484375 C8.2998246 6.91237826 12.52713569 7.08248937 17 8 C17 8.33 17 8.66 17 9 C11.70518291 9.09289153 7.35789122 8.76541303 2 8 C2 13.61 2 19.22 2 25 C1.34 25 0.68 25 0 25 C0 19.72 0 14.44 0 9 C-2.97 8.505 -2.97 8.505 -6 8 C-6.33 20.54 -6.66 33.08 -7 46 C-7.66 46 -8.32 46 -9 46 C-8.99476318 44.96069336 -8.98952637 43.92138672 -8.98413086 42.85058594 C-8.9660102 38.98910384 -8.95454214 35.12762548 -8.94506836 31.26611328 C-8.94004431 29.59585945 -8.93322395 27.92561001 -8.92456055 26.25537109 C-8.91241054 23.85252804 -8.90675237 21.44974321 -8.90234375 19.046875 C-8.89460182 17.9294693 -8.89460182 17.9294693 -8.88670349 16.78948975 C-8.8863246 13.27587781 -9.14023766 10.43904937 -10 7 C-6.7 7 -3.4 7 0 7 C0 4.69 0 2.38 0 0 Z " fill="#7271FB" transform="translate(395,27)"/>
<path d="M0 0 C0.33 0 0.66 0 1 0 C1.19480301 5.4398547 1.37307264 10.87993126 1.53710938 16.32080078 C1.59492197 18.1653437 1.65697735 20.00975937 1.72363281 21.85400391 C2.11917721 32.88729531 1.95974421 43.09424789 0 54 C4.62 54 9.24 54 14 54 C14 54.33 14 54.66 14 55 C10.37 55 6.74 55 3 55 C3 56.65 3 58.3 3 60 C9.93 60 16.86 60 24 60 C24 60.33 24 60.66 24 61 C23.39526855 61.02505615 22.79053711 61.0501123 22.16748047 61.07592773 C19.4031438 61.19263006 16.63908634 61.31501734 13.875 61.4375 C12.92367187 61.47681641 11.97234375 61.51613281 10.9921875 61.55664062 C7.07889973 61.73328209 3.33156182 61.94131649 -0.53125 62.625 C-3 63 -3 63 -5.375 61.5625 C-5.91125 61.046875 -6.4475 60.53125 -7 60 C-4.525 59.505 -4.525 59.505 -2 59 C-1.15384911 51.76079887 -0.80292923 44.58943733 -0.68359375 37.3046875 C-0.66281265 36.23123077 -0.64203156 35.15777405 -0.62062073 34.05178833 C-0.55580872 30.65958375 -0.49656166 27.26730907 -0.4375 23.875 C-0.3942496 21.5598889 -0.35063336 19.24478461 -0.30664062 16.9296875 C-0.20019856 11.28653007 -0.0983119 5.64330462 0 0 Z " fill="#6462FA" transform="translate(170,64)"/>
<path d="M0 0 C0.33 0 0.66 0 1 0 C2.2063366 5.22745859 1.75612577 9.76528314 1 15 C2.32 15.33 3.64 15.66 5 16 C3.68 16.33 2.36 16.66 1 17 C1 17.99 1 18.98 1 20 C6.28 20.33 11.56 20.66 17 21 C17 21.33 17 21.66 17 22 C15.95199219 22.06058594 14.90398437 22.12117188 13.82421875 22.18359375 C12.44529952 22.26801738 11.06639395 22.35266447 9.6875 22.4375 C8.99720703 22.47681641 8.30691406 22.51613281 7.59570312 22.55664062 C4.52838465 22.74927415 1.93031848 23.02322717 -1 24 C-4.625 23.6875 -4.625 23.6875 -8 23 C-8.33 22.34 -8.66 21.68 -9 21 C-8.34 20.67 -7.68 20.34 -7 20 C-6.67 19.01 -6.34 18.02 -6 17 C-7.32 16.67 -8.64 16.34 -10 16 C-9.67 13.36 -9.34 10.72 -9 8 C-8.34 8.33 -7.68 8.66 -7 9 C-7 10.65 -7 12.3 -7 14 C-6.67 13.01 -6.34 12.02 -6 11 C-5.34 11 -4.68 11 -4 11 C-4 12.32 -4 13.64 -4 15 C-2.68 15 -1.36 15 0 15 C-0.08378906 14.33613281 -0.16757813 13.67226562 -0.25390625 12.98828125 C-1.26537786 4.21792619 -1.26537786 4.21792619 0 0 Z " fill="#ABAAFC" transform="translate(251,102)"/>
<path d="M0 0 C0.33 0 0.66 0 1 0 C1 5.28 1 10.56 1 16 C2.32 16 3.64 16 5 16 C5.33 14.68 5.66 13.36 6 12 C6.33 12.99 6.66 13.98 7 15 C7.99 14.01 8.98 13.02 10 12 C10.33 13.32 10.66 14.64 11 16 C12.32 16.33 13.64 16.66 15 17 C13.68 17 12.36 17 11 17 C11.33 18.65 11.66 20.3 12 22 C10.02 22.33 8.04 22.66 6 23 C6 23.66 6 24.32 6 25 C4.68 24.67 3.36 24.34 2 24 C2 22.68 2 21.36 2 20 C2.99 20 3.98 20 5 20 C5 19.34 5 18.68 5 18 C3.68 18 2.36 18 1 18 C1 20.31 1 22.62 1 25 C0.67 24.34 0.34 23.68 0 23 C-3.04581269 22.53045739 -3.04581269 22.53045739 -6.5625 22.375 C-8.35880859 22.26285156 -8.35880859 22.26285156 -10.19140625 22.1484375 C-11.11824219 22.09945312 -12.04507812 22.05046875 -13 22 C-13 21.67 -13 21.34 -13 21 C-6.565 20.505 -6.565 20.505 0 20 C-0.33 19.34 -0.66 18.68 -1 18 C-3.12576782 17.53348793 -3.12576782 17.53348793 -5.5625 17.375 C-6.38878906 17.30023438 -7.21507812 17.22546875 -8.06640625 17.1484375 C-8.70449219 17.09945312 -9.34257812 17.05046875 -10 17 C-10 16.67 -10 16.34 -10 16 C-6.7 16 -3.4 16 0 16 C-0.08378906 15.26394531 -0.16757812 14.52789062 -0.25390625 13.76953125 C-0.35574219 12.79371094 -0.45757812 11.81789063 -0.5625 10.8125 C-0.71912109 9.36810547 -0.71912109 9.36810547 -0.87890625 7.89453125 C-0.99758751 5.05766623 -0.67765639 2.74576329 0 0 Z " fill="#312FFA" transform="translate(437,102)"/>
<path d="M0 0 C1.32 0 2.64 0 4 0 C4 2.64 4 5.28 4 8 C2.68 8 1.36 8 0 8 C1.32 8.33 2.64 8.66 4 9 C3.67 10.32 3.34 11.64 3 13 C3 12.34 3 11.68 3 11 C1.824375 12.2375 1.824375 12.2375 0.625 13.5 C-2 16 -2 16 -4 16 C-4 20.95 -4 25.9 -4 31 C-4.66 31 -5.32 31 -6 31 C-6 22.09 -6 13.18 -6 4 C-5.34 5.32 -4.68 6.64 -4 8 C-4.33 8.66 -4.66 9.32 -5 10 C-4.34 10 -3.68 10 -3 10 C-3 9.01 -3 8.02 -3 7 C-2.34 7 -1.68 7 -1 7 C-1.020625 6.030625 -1.04125 5.06125 -1.0625 4.0625 C-1 1 -1 1 0 0 Z " fill="#BDBCFC" transform="translate(343,74)"/>
<path d="M0 0 C3 1 3 1 4.0625 3 C4.371875 3.66 4.68125 4.32 5 5 C5.66 5.33 6.32 5.66 7 6 C7 8.31 7 10.62 7 13 C6.34 13 5.68 13 5 13 C5.185625 14.11375 5.37125 15.2275 5.5625 16.375 C6 20 6 20 5 22 C4.34 22 3.68 22 3 22 C2.87625 21.195625 2.7525 20.39125 2.625 19.5625 C2.41875 18.716875 2.2125 17.87125 2 17 C1.34 16.67 0.68 16.34 0 16 C0 15.34 0 14.68 0 14 C-0.66 14 -1.32 14 -2 14 C-2.05389087 12.04196493 -2.09274217 10.08351091 -2.125 8.125 C-2.14820313 7.03445312 -2.17140625 5.94390625 -2.1953125 4.8203125 C-2 2 -2 2 0 0 Z " fill="#5E5CFA" transform="translate(269,70)"/>
<path d="M0 0 C0.99 0.33 1.98 0.66 3 1 C2.01 1.33 1.02 1.66 0 2 C0 2.66 0 3.32 0 4 C0.99 4 1.98 4 3 4 C3 8.29 3 12.58 3 17 C1.35 17.66 -0.3 18.32 -2 19 C-2.33 22.96 -2.66 26.92 -3 31 C-3.33 31 -3.66 31 -4 31 C-4 22.42 -4 13.84 -4 5 C-3.34 5 -2.68 5 -2 5 C-2 3.68 -2 2.36 -2 1 C-1.34 0.67 -0.68 0.34 0 0 Z " fill="#B6B6FC" transform="translate(344,88)"/>
<path d="M0 0 C2.31 0 4.62 0 7 0 C7 5.28 7 10.56 7 16 C5.68 16.33 4.36 16.66 3 17 C2.67 19.64 2.34 22.28 2 25 C1.67 25 1.34 25 1 25 C0.04541351 16.64736824 -0.11039334 8.40215965 0 0 Z " fill="#F9F9FE" transform="translate(185,48)"/>
<path d="M0 0 C0.99 0 1.98 0 3 0 C3.33 1.98 3.66 3.96 4 6 C4.78375 5.79375 5.5675 5.5875 6.375 5.375 C7.674375 5.189375 7.674375 5.189375 9 5 C11 7 11 7 11 10 C10.01 10.495 10.01 10.495 9 11 C8.65657551 12.33076989 8.32380126 13.66431979 8 15 C6 17 6 17 2.875 17.125 C1.451875 17.063125 1.451875 17.063125 0 17 C-0.19561869 14.9174133 -0.38119313 12.83388144 -0.5625 10.75 C-0.66691406 9.58984375 -0.77132813 8.4296875 -0.87890625 7.234375 C-0.98198087 4.48128523 -0.86213473 2.580018 0 0 Z " fill="#DFDEFD" transform="translate(293,101)"/>
<path d="M0 0 C1.32 0 2.64 0 4 0 C4 0.66 4 1.32 4 2 C3.34 2 2.68 2 2 2 C2 3.32 2 4.64 2 6 C2.94875 5.95875 3.8975 5.9175 4.875 5.875 C8 6 8 6 10 8 C10 5.36 10 2.72 10 0 C12.97 0.495 12.97 0.495 16 1 C14.68 1.33 13.36 1.66 12 2 C12 3.32 12 4.64 12 6 C14.64 6 17.28 6 20 6 C20 6.33 20 6.66 20 7 C18.02 7.33 16.04 7.66 14 8 C14 9.32 14 10.64 14 12 C12.35 11.67 10.7 11.34 9 11 C8.67 16.28 8.34 21.56 8 27 C7.67 27 7.34 27 7 27 C5.875 20.25 5.875 20.25 7 18 C5.68 17.67 4.36 17.34 3 17 C2.67 18.98 2.34 20.96 2 23 C1.67 23 1.34 23 1 23 C1 21.35 1 19.7 1 18 C0.34 18 -0.32 18 -1 18 C-1 17.34 -1 16.68 -1 16 C0.98 15.34 2.96 14.68 5 14 C5.33 14.33 5.66 14.66 6 15 C6.33 14.01 6.66 13.02 7 12 C6.34 12 5.68 12 5 12 C5 11.01 5 10.02 5 9 C3.02 8.34 1.04 7.68 -1 7 C-0.34 6.67 0.32 6.34 1 6 C0.67 4.02 0.34 2.04 0 0 Z " fill="#4B49FA" transform="translate(266,28)"/>
<path d="M0 0 C0.66 0.66 1.32 1.32 2 2 C0.35 2.33 -1.3 2.66 -3 3 C-3 10.59 -3 18.18 -3 26 C-3.33 26 -3.66 26 -4 26 C-4 20.06 -4 14.12 -4 8 C-4.66 8 -5.32 8 -6 8 C-6 7.01 -6 6.02 -6 5 C-5.34 5 -4.68 5 -4 5 C-4 4.34 -4 3.68 -4 3 C-6.64 3 -9.28 3 -12 3 C-12 3.66 -12 4.32 -12 5 C-11.01 5 -10.02 5 -9 5 C-9 5.99 -9 6.98 -9 8 C-9.99 8 -10.98 8 -12 8 C-12 13.94 -12 19.88 -12 26 C-12.33 26 -12.66 26 -13 26 C-13 19.73 -13 13.46 -13 7 C-14.98 7 -16.96 7 -19 7 C-19 6.67 -19 6.34 -19 6 C-17.02 6 -15.04 6 -13 6 C-13 5.01 -13 4.02 -13 3 C-14.32 2.34 -15.64 1.68 -17 1 C-11.12612181 -0.81556235 -6.04676485 -1.55559926 0 0 Z " fill="#4442FA" transform="translate(425,28)"/>
<path d="M0 0 C2.64 0 5.28 0 8 0 C8 2.97 8 5.94 8 9 C8.99 9.33 9.98 9.66 11 10 C10.525625 10.433125 10.05125 10.86625 9.5625 11.3125 C7.76313043 13.02309613 7.76313043 13.02309613 7 16 C6.34 16 5.68 16 5 16 C5 15.34 5 14.68 5 14 C4.34 14 3.68 14 3 14 C2.67 14.66 2.34 15.32 2 16 C1.34 16 0.68 16 0 16 C0 10.72 0 5.44 0 0 Z " fill="#ECECFE" transform="translate(438,56)"/>
<path d="M0 0 C3.375 -0.125 3.375 -0.125 7 0 C9 2 9 2 11 5 C10.67591632 8.34886464 9.21529931 10.51886477 7 13 C6.34 13 5.68 13 5 13 C5 12.34 5 11.68 5 11 C4.01 11 3.02 11 2 11 C2 11.66 2 12.32 2 13 C1.34 13 0.68 13 0 13 C0 8.71 0 4.42 0 0 Z " fill="#E0E0FE" transform="translate(438,79)"/>
<path d="M0 0 C0.99 0.66 1.98 1.32 3 2 C2.67 3.65 2.34 5.3 2 7 C-2.29 7 -6.58 7 -11 7 C-11 10.96 -11 14.92 -11 19 C-11.33 19 -11.66 19 -12 19 C-12 13.39 -12 7.78 -12 2 C-5.07042254 -1.46478873 -5.07042254 -1.46478873 0 0 Z " fill="#C2C2FD" transform="translate(434,29)"/>
<path d="M0 0 C1.32 0.33 2.64 0.66 4 1 C4.33 2.98 4.66 4.96 5 7 C5.66 7 6.32 7 7 7 C7 7.99 7 8.98 7 10 C6.34 10 5.68 10 5 10 C5 13.63 5 17.26 5 21 C4.01 21 3.02 21 2 21 C1.67 17.04 1.34 13.08 1 9 C0.67 12.63 0.34 16.26 0 20 C-0.33 20 -0.66 20 -1 20 C-1 16.7 -1 13.4 -1 10 C-1.99 9.67 -2.98 9.34 -4 9 C-3.67 8.34 -3.34 7.68 -3 7 C-2.34 7 -1.68 7 -1 7 C-0.67 4.69 -0.34 2.38 0 0 Z " fill="#7877FB" transform="translate(337,35)"/>
<path d="M0 0 C2 0 4 0 6 0 C6 0.99 6 1.98 6 3 C6.66 3 7.32 3 8 3 C8 2.01 8 1.02 8 0 C8.66 0 9.32 0 10 0 C10.19491452 1.45736087 10.38069358 2.91594593 10.5625 4.375 C10.66691406 5.18710937 10.77132813 5.99921875 10.87890625 6.8359375 C11 9 11 9 10 11 C7.71484375 11.4140625 7.71484375 11.4140625 4.9375 11.625 C3.308125 11.74875 1.67875 11.8725 0 12 C0 8.04 0 4.08 0 0 Z " fill="#F7F7FE" transform="translate(363,57)"/>
<path d="M0 0 C7.26 0 14.52 0 22 0 C22 0.66 22 1.32 22 2 C17.05 2.33 12.1 2.66 7 3 C6.34 5.31 5.68 7.62 5 10 C3.35 10.33 1.7 10.66 0 11 C0 10.34 0 9.68 0 9 C-0.66 8.67 -1.32 8.34 -2 8 C-1.01 7.67 -0.02 7.34 1 7 C1.66 7.33 2.32 7.66 3 8 C3 7.34 3 6.68 3 6 C2.01 6 1.02 6 0 6 C0 4.02 0 2.04 0 0 Z " fill="#FDFDFE" transform="translate(415,94)"/>
<path d="M0 0 C0 0.66 0 1.32 0 2 C-2.32343556 3.16171778 -3.69633316 3.12903969 -6.28125 3.1328125 C-7.54388672 3.13474609 -7.54388672 3.13474609 -8.83203125 3.13671875 C-10.15267578 3.13091797 -10.15267578 3.13091797 -11.5 3.125 C-12.38042969 3.12886719 -13.26085937 3.13273437 -14.16796875 3.13671875 C-15.00972656 3.13542969 -15.85148437 3.13414063 -16.71875 3.1328125 C-17.49154297 3.13168457 -18.26433594 3.13055664 -19.06054688 3.12939453 C-21 3 -21 3 -23 2 C-23 1.01 -23 0.02 -23 -1 C-14.94313304 -2.1736381 -7.95420855 -1.67968453 0 0 Z " fill="#FCFCFE" transform="translate(419,120)"/>
<path d="M0 0 C0.33 0.99 0.66 1.98 1 3 C3.01508358 3.73323796 3.01508358 3.73323796 5 4 C5 3.01 5 2.02 5 1 C5.66 1.33 6.32 1.66 7 2 C7.125 8.75 7.125 8.75 6 11 C5.01 11 4.02 11 3 11 C3 10.34 3 9.68 3 9 C2.34 9 1.68 9 1 9 C0.67 9.66 0.34 10.32 0 11 C0 10.34 0 9.68 0 9 C-1.65 9 -3.3 9 -5 9 C-5 7.68 -5 6.36 -5 5 C-5.66 4.67 -6.32 4.34 -7 4 C-3.535 3.505 -3.535 3.505 0 3 C0 2.01 0 1.02 0 0 Z " fill="#6D6CFB" transform="translate(370,65)"/>
<path d="M0 0 C0.66 0 1.32 0 2 0 C2.33 11.55 2.66 23.1 3 35 C3.66 35.33 4.32 35.66 5 36 C2.69 36 0.38 36 -2 36 C-1.84152588 35.49243164 -1.68305176 34.98486328 -1.51977539 34.46191406 C-0.82830633 31.18677364 -0.7656084 27.94303931 -0.68359375 24.609375 C-0.66281265 23.90476135 -0.64203156 23.20014771 -0.62062073 22.47418213 C-0.55546163 20.23288319 -0.49639752 17.99147136 -0.4375 15.75 C-0.39428274 14.22655103 -0.35066743 12.70311329 -0.30664062 11.1796875 C-0.19981509 7.45324409 -0.09845361 3.72667506 0 0 Z " fill="#9594FB" transform="translate(161,83)"/>
<path d="M0 0 C0.66 0 1.32 0 2 0 C4.29822325 3.64216695 4.23128602 6.70825007 4.1953125 10.953125 C4.1924826 11.61334656 4.18965271 12.27356812 4.18673706 12.95379639 C4.17558415 15.05271897 4.15048946 17.15120742 4.125 19.25 C4.11496384 20.67707715 4.1058391 22.10416102 4.09765625 23.53125 C4.07566111 27.02097328 4.04116536 30.51044423 4 34 C3.34 34 2.68 34 2 34 C1.67 27.07 1.34 20.14 1 13 C0.67 13 0.34 13 0 13 C0 8.71 0 4.42 0 0 Z " fill="#BEBDFC" transform="translate(363,70)"/>
<path d="M0 0 C0.66 0.33 1.32 0.66 2 1 C2.18451025 17.8929385 2.18451025 17.8929385 1 25 C0.01 25 -0.98 25 -2 25 C-2 19.72 -2 14.44 -2 9 C-1.34 9 -0.68 9 0 9 C0 6.69 0 4.38 0 2 C-0.66 1.67 -1.32 1.34 -2 1 C-1.34 0.67 -0.68 0.34 0 0 Z " fill="#F8F8FE" transform="translate(276,74)"/>
<path d="M0 0 C0.66 0.33 1.32 0.66 2 1 C2 2.32 2 3.64 2 5 C2.99 5.33 3.98 5.66 5 6 C5 6.66 5 7.32 5 8 C4.01 8.33 3.02 8.66 2 9 C2.020625 9.94875 2.04125 10.8975 2.0625 11.875 C2 15 2 15 1 17 C0.34 17 -0.32 17 -1 17 C-1 15.68 -1 14.36 -1 13 C-3.31 13 -5.62 13 -8 13 C-7.401875 12.731875 -6.80375 12.46375 -6.1875 12.1875 C-3.95762543 10.97699666 -2.54509308 10.008621 -1 8 C-1 6.68 -1 5.36 -1 4 C-1.66 3.67 -2.32 3.34 -3 3 C-2.34 3 -1.68 3 -1 3 C-0.67 2.01 -0.34 1.02 0 0 Z " fill="#2623F9" transform="translate(446,89)"/>
<path d="M0 0 C2.64 0.33 5.28 0.66 8 1 C7.67 1.99 7.34 2.98 7 4 C4.525 3.01 4.525 3.01 2 2 C1.67 4.31 1.34 6.62 1 9 C3.31 9.33 5.62 9.66 8 10 C8 10.33 8 10.66 8 11 C3.61414671 11.70173653 -0.55790643 12.10834375 -5 12 C-5 11.01 -5 10.02 -5 9 C-4.34 9 -3.68 9 -3 9 C-3 7.68 -3 6.36 -3 5 C-3.99 4.67 -4.98 4.34 -6 4 C-4.68 4 -3.36 4 -2 4 C-2 5.65 -2 7.3 -2 9 C-1.34 9 -0.68 9 0 9 C-0.185625 8.071875 -0.37125 7.14375 -0.5625 6.1875 C-1 3 -1 3 0 0 Z " fill="#6867FB" transform="translate(60,115)"/>
<path d="M0 0 C5.1827957 0 5.1827957 0 8 1 C11.11024247 4.50329509 11.93683957 8.22944273 12.3125 12.8125 C12 16 12 16 11 19 C8.9375 19.6875 8.9375 19.6875 7 20 C7.165 19.505 7.33 19.01 7.5 18.5 C8.76454181 12.17977865 8.76454181 12.17977865 6.98828125 6.21875 C4.89722365 3.65673348 2.7502256 1.83348373 0 0 Z " fill="#4644FA" transform="translate(111,68)"/>
<path d="M0 0 C1.98 0.99 1.98 0.99 4 2 C4 6.95 4 11.9 4 17 C2.68 17.33 1.36 17.66 0 18 C0 12.06 0 6.12 0 0 Z " fill="#DBDBFD" transform="translate(274,38)"/>
<path d="M0 0 C0.33 0 0.66 0 1 0 C1.02698189 1.62490954 1.04638757 3.24994633 1.0625 4.875 C1.07410156 5.77992187 1.08570313 6.68484375 1.09765625 7.6171875 C1 10 1 10 0 12 C-3.63 12 -7.26 12 -11 12 C-11.33 11.34 -11.66 10.68 -12 10 C-10.02253397 9.26919734 -8.01927511 8.60578253 -6 8 C-5.34 8.33 -4.68 8.66 -4 9 C-3.896875 8.2575 -3.79375 7.515 -3.6875 6.75 C-2.95458812 3.81835246 -1.99174829 2.24071683 0 0 Z " fill="#D7D7FD" transform="translate(291,108)"/>
<path d="M0 0 C0.33 0 0.66 0 1 0 C1.02698189 1.62490954 1.04638757 3.24994633 1.0625 4.875 C1.07410156 5.77992187 1.08570313 6.68484375 1.09765625 7.6171875 C1 10 1 10 0 12 C-4.62 12 -9.24 12 -14 12 C-9.85035583 8.88776687 -7.99162787 8.47996422 -3 8 C-2.87625 7.236875 -2.7525 6.47375 -2.625 5.6875 C-2 3 -2 3 0 0 Z " fill="#8988FB" transform="translate(436,108)"/>
<path d="M0 0 C0.33 1.32 0.66 2.64 1 4 C1.99 4 2.98 4 4 4 C4.33 3.01 4.66 2.02 5 1 C5.66 1.33 6.32 1.66 7 2 C7 2.66 7 3.32 7 4 C7.66 4.33 8.32 4.66 9 5 C6.36 5 3.72 5 1 5 C1 6.65 1 8.3 1 10 C2.32 10.33 3.64 10.66 5 11 C1.54970958 13.30019361 0.05445642 13.43132515 -4 13 C-4.66 12.01 -5.32 11.02 -6 10 C-5.34 9.01 -4.68 8.02 -4 7 C-3.34 7 -2.68 7 -2 7 C-2 7.66 -2 8.32 -2 9 C-1.34 9 -0.68 9 0 9 C-0.185625 8.2575 -0.37125 7.515 -0.5625 6.75 C-0.99203108 4.05009037 -0.85122974 2.55368923 0 0 Z " fill="#5C5AFA" transform="translate(369,114)"/>
<path d="M0 0 C0.66 0.33 1.32 0.66 2 1 C2 2.65 2 4.3 2 6 C2.33 5.01 2.66 4.02 3 3 C3.66 3 4.32 3 5 3 C6.125 8.625 6.125 8.625 5 12 C5.66 12 6.32 12 7 12 C7.33 12.99 7.66 13.98 8 15 C5.6875 15.6875 5.6875 15.6875 3 16 C1.1875 14.5625 1.1875 14.5625 0 13 C0.66 12.67 1.32 12.34 2 12 C2.33 11.01 2.66 10.02 3 9 C1.68 8.67 0.36 8.34 -1 8 C-0.67 5.36 -0.34 2.72 0 0 Z " fill="#8584FB" transform="translate(242,110)"/>
<path d="M0 0 C0.33 0 0.66 0 1 0 C1.22162329 1.62324086 1.42689803 3.248721 1.625 4.875 C1.74101562 5.77992187 1.85703125 6.68484375 1.9765625 7.6171875 C1.98429687 8.40351562 1.99203125 9.18984375 2 10 C1.34 10.66 0.68 11.32 0 12 C0 11.01 0 10.02 0 9 C-0.99 9 -1.98 9 -3 9 C-3 10.98 -3 12.96 -3 15 C-5 11.25 -5 11.25 -5 9 C-5.99 8.67 -6.98 8.34 -8 8 C-8 7.01 -8 6.02 -8 5 C-6.68 5 -5.36 5 -4 5 C-3.67 4.01 -3.34 3.02 -3 2 C-2.67 2.99 -2.34 3.98 -2 5 C-1.34 5.33 -0.68 5.66 0 6 C0 4.02 0 2.04 0 0 Z " fill="#5A59FA" transform="translate(301,92)"/>
<path d="M0 0 C0.66 0 1.32 0 2 0 C2 2.64 2 5.28 2 8 C3.65 7.67 5.3 7.34 7 7 C6.01 7.495 6.01 7.495 5 8 C5.33 9.98 5.66 11.96 6 14 C4.02 14.33 2.04 14.66 0 15 C-1.33332095 12.3333581 -0.67102033 10.83319697 0 8 C-1.65 7.67 -3.3 7.34 -5 7 C-5 6.34 -5 5.68 -5 5 C-2.525 5.495 -2.525 5.495 0 6 C0 4.02 0 2.04 0 0 Z " fill="#9E9DFC" transform="translate(26,112)"/>
<path d="M0 0 C3.19902639 -0.08886184 5.92677456 0.08941469 9 1 C8.44295272 4.23087421 7.66812465 6.02361137 5 8 C3.68 8 2.36 8 1 8 C1 6.68 1 5.36 1 4 C0.34 4 -0.32 4 -1 4 C-0.67 2.68 -0.34 1.36 0 0 Z " fill="#9594FC" transform="translate(29,27)"/>
<path d="M0 0 C2.64 0 5.28 0 8 0 C8 0.66 8 1.32 8 2 C7.34 2 6.68 2 6 2 C6.33 2.99 6.66 3.98 7 5 C7.06937062 7.22818441 7.08457084 9.45834524 7.0625 11.6875 C7.05347656 12.86699219 7.04445313 14.04648437 7.03515625 15.26171875 C7.02355469 16.16535156 7.01195312 17.06898437 7 18 C4.86818786 14.25712373 5.04314575 12.21015871 6 8 C4.68 8 3.36 8 2 8 C2 7.34 2 6.68 2 6 C1.34 5.67 0.68 5.34 0 5 C0.99 5 1.98 5 3 5 C3 4.01 3 3.02 3 2 C2.01 2 1.02 2 0 2 C0 1.34 0 0.68 0 0 Z " fill="#5B59FA" transform="translate(413,31)"/>
<path d="M0 0 C1.084021 0.00523682 2.16804199 0.01047363 3.28491211 0.01586914 C5.03964844 0.02070312 5.03964844 0.02070312 6.82983398 0.02563477 C8.67738281 0.03820312 8.67738281 0.03820312 10.56225586 0.05102539 C12.41560547 0.05779297 12.41560547 0.05779297 14.30639648 0.06469727 C17.37089703 0.07652931 20.43530307 0.09301366 23.49975586 0.11352539 C23.49975586 0.44352539 23.49975586 0.77352539 23.49975586 1.11352539 C15.57975586 1.11352539 7.65975586 1.11352539 -0.50024414 1.11352539 C-0.50024414 3.09352539 -0.50024414 5.07352539 -0.50024414 7.11352539 C0.48975586 7.11352539 1.47975586 7.11352539 2.49975586 7.11352539 C2.49975586 7.77352539 2.49975586 8.43352539 2.49975586 9.11352539 C0.84975586 9.11352539 -0.80024414 9.11352539 -2.50024414 9.11352539 C-3.86648088 6.38105191 -3.62867014 4.13153637 -3.50024414 1.11352539 C-2.50024414 0.11352539 -2.50024414 0.11352539 0 0 Z " fill="#8F8EFB" transform="translate(415.500244140625,92.886474609375)"/>
<path d="M0 0 C0.33 0 0.66 0 1 0 C1.66 1.98 2.32 3.96 3 6 C3.66 4.68 4.32 3.36 5 2 C5.33 4.64 5.66 7.28 6 10 C4.68 10 3.36 10 2 10 C1.34 10.66 0.68 11.32 0 12 C-0.33 10.68 -0.66 9.36 -1 8 C-1.99 8 -2.98 8 -4 8 C-4 6.68 -4 5.36 -4 4 C-2.68 4 -1.36 4 0 4 C0 2.68 0 1.36 0 0 Z " fill="#5250FA" transform="translate(297,67)"/>
<path d="M0 0 C2.475 0.99 2.475 0.99 5 2 C5 3.98 5 5.96 5 8 C2.36 8 -0.28 8 -3 8 C-3 6.02 -3 4.04 -3 2 C-2.34 2 -1.68 2 -1 2 C-0.67 1.34 -0.34 0.68 0 0 Z " fill="#F3F3FE" transform="translate(416,68)"/>
<path d="M0 0 C0 2.31 0 4.62 0 7 C0.99 7 1.98 7 3 7 C2.67 8.32 2.34 9.64 2 11 C0.68 11.33 -0.64 11.66 -2 12 C-3.125 9.6875 -3.125 9.6875 -4 7 C-3.34 6.01 -2.68 5.02 -2 4 C-2.99 4 -3.98 4 -5 4 C-5 3.01 -5 2.02 -5 1 C-1.125 0 -1.125 0 0 0 Z " fill="#221FFA" transform="translate(391,115)"/>
<path d="M0 0 C0.99 0.33 1.98 0.66 3 1 C2.67 1.99 2.34 2.98 2 4 C1.67 4 1.34 4 1 4 C1 6.97 1 9.94 1 13 C1.66 13 2.32 13 3 13 C3.33 14.65 3.66 16.3 4 18 C2.68 17.34 1.36 16.68 0 16 C0 15.34 0 14.68 0 14 C-0.66 14 -1.32 14 -2 14 C-2.05389087 12.04196493 -2.09274217 10.08351091 -2.125 8.125 C-2.14820313 7.03445312 -2.17140625 5.94390625 -2.1953125 4.8203125 C-2 2 -2 2 0 0 Z " fill="#BDBDFC" transform="translate(269,70)"/>
<path d="M0 0 C3.96 0 7.92 0 12 0 C12 3.63 12 7.26 12 11 C11.01 10.01 10.02 9.02 9 8 C9.3125 5.8125 9.3125 5.8125 10 4 C8.906875 3.896875 7.81375 3.79375 6.6875 3.6875 C3 3 3 3 0 0 Z " fill="#EFEFFE" transform="translate(280,56)"/>
<path d="M0 0 C2.26609984 4.53219967 1.92735976 6.17772925 1 11 C1.66 11 2.32 11 3 11 C3.66 10.34 4.32 9.68 5 9 C5 9.66 5 10.32 5 11 C6.32 11.66 7.64 12.32 9 13 C4.94214651 15.02892674 2.3831949 15.16885197 -2 14 C-2.66 13.34 -3.32 12.68 -4 12 C-3.01 11.67 -2.02 11.34 -1 11 C-0.67 7.37 -0.34 3.74 0 0 Z " fill="#4745FA" transform="translate(313,112)"/>
<path d="M0 0 C1.98 0 3.96 0 6 0 C6.33 0.99 6.66 1.98 7 3 C6.01 3.495 6.01 3.495 5 4 C4.67 4.99 4.34 5.98 4 7 C4.99 7.33 5.98 7.66 7 8 C0.4 8 -6.2 8 -13 8 C-13 7.67 -13 7.34 -13 7 C-8.05 7 -3.1 7 2 7 C2 6.01 2 5.02 2 4 C1.34 3.67 0.68 3.34 0 3 C0 2.01 0 1.02 0 0 Z " fill="#7C7BFB" transform="translate(184,27)"/>
<path d="M0 0 C0.66 0 1.32 0 2 0 C2 2.97 2 5.94 2 9 C2.66 9.33 3.32 9.66 4 10 C3.67 10.33 3.34 10.66 3 11 C3.66 11.33 4.32 11.66 5 12 C5.33 11.34 5.66 10.68 6 10 C6.99 11.485 6.99 11.485 8 13 C7.01 13 6.02 13 5 13 C5 13.66 5 14.32 5 15 C2.5625 14.3125 2.5625 14.3125 0 13 C-1.7423148 8.76866406 -0.6708482 4.39778267 0 0 Z " fill="#C7C7FD" transform="translate(268,91)"/>
<path d="M0 0 C1.4540625 0.0309375 1.4540625 0.0309375 2.9375 0.0625 C1.6175 0.3925 0.2975 0.7225 -1.0625 1.0625 C-1.3925 8.6525 -1.7225 16.2425 -2.0625 24.0625 C-4.0625 22.0625 -4.0625 22.0625 -4.30541992 19.92358398 C-4.30131104 19.06063721 -4.29720215 18.19769043 -4.29296875 17.30859375 C-4.29103516 16.37208984 -4.28910156 15.43558594 -4.28710938 14.47070312 C-4.27486328 13.49037109 -4.26261719 12.51003906 -4.25 11.5 C-4.24935547 10.51580078 -4.24871094 9.53160156 -4.24804688 8.51757812 C-4.1957467 0.08562748 -4.1957467 0.08562748 0 0 Z " fill="#9898FC" transform="translate(246.0625,33.9375)"/>
<path d="M0 0 C0 2.64 0 5.28 0 8 C1.051875 7.7215625 1.051875 7.7215625 2.125 7.4375 C5.33888698 6.94843024 7.83560336 7.33768442 11 8 C10.67 8.99 10.34 9.98 10 11 C9.01 11 8.02 11 7 11 C7 10.34 7 9.68 7 9 C4.69 9 2.38 9 0 9 C0 12.63 0 16.26 0 20 C-0.33 20 -0.66 20 -1 20 C-1.07347656 18.30230469 -1.07347656 18.30230469 -1.1484375 16.5703125 C-1.22346514 15.08851661 -1.29901297 13.606747 -1.375 12.125 C-1.42140625 11.00544922 -1.42140625 11.00544922 -1.46875 9.86328125 C-1.55643831 5.46526812 -1.55643831 5.46526812 -4 2 C-1 0 -1 0 0 0 Z " fill="#3432FA" transform="translate(438,27)"/>
<path d="M0 0 C0.99 0.99 1.98 1.98 3 3 C2.6875 5.1875 2.6875 5.1875 2 7 C2.598125 6.773125 3.19625 6.54625 3.8125 6.3125 C4.8953125 6.1578125 4.8953125 6.1578125 6 6 C7.625 7.4375 7.625 7.4375 9 9 C9.66 9 10.32 9 11 9 C11 9.66 11 10.32 11 11 C6.39790775 11.17700355 4.21629134 11.10814567 0 9 C0 6.03 0 3.06 0 0 Z " fill="#CDCDFD" transform="translate(252,108)"/>
<path d="M0 0 C2.00720923 0.28674418 4.0085944 0.61866701 6 1 C3 3 3 3 1 3 C1 10.59 1 18.18 1 26 C0.67 26 0.34 26 0 26 C0 20.06 0 14.12 0 8 C-0.66 8 -1.32 8 -2 8 C-2 7.01 -2 6.02 -2 5 C-1.34 5 -0.68 5 0 5 C-0.2784375 4.0409375 -0.2784375 4.0409375 -0.5625 3.0625 C-0.7790625 2.0415625 -0.7790625 2.0415625 -1 1 C-0.67 0.67 -0.34 0.34 0 0 Z " fill="#2C2AFA" transform="translate(421,28)"/>
<path d="M0 0 C0.99 0 1.98 0 3 0 C3 3.3 3 6.6 3 10 C0.69 10 -1.62 10 -4 10 C-3.67 8.68 -3.34 7.36 -3 6 C-2.01 6 -1.02 6 0 6 C0 4.02 0 2.04 0 0 Z " fill="#B9B9FD" transform="translate(270,46)"/>
<path d="M0 0 C0 0.33 0 0.66 0 1 C-1.65 1 -3.3 1 -5 1 C-4.67 1.99 -4.34 2.98 -4 4 C-3.34 4 -2.68 4 -2 4 C-2 5.32 -2 6.64 -2 8 C-3.32 8.33 -4.64 8.66 -6 9 C-6 8.34 -6 7.68 -6 7 C-6.66 7 -7.32 7 -8 7 C-7.67 5.35 -7.34 3.7 -7 2 C-9.64 1.67 -12.28 1.34 -15 1 C-15 0.67 -15 0.34 -15 0 C-9.76528314 -0.75612577 -5.22745859 -1.2063366 0 0 Z " fill="#3734FA" transform="translate(298,118)"/>
<path d="M0 0 C1.9375 0.375 1.9375 0.375 4 1 C5.60725635 4.21451269 5.05748185 7.43612536 5 11 C4.01 11.495 4.01 11.495 3 12 C3 11.01 3 10.02 3 9 C2.34 9 1.68 9 1 9 C0.45627049 5.94152152 0 3.11227195 0 0 Z " fill="#EBEBFE" transform="translate(341,33)"/>
<path d="M0 0 C5.28 0 10.56 0 16 0 C15.01 0.495 15.01 0.495 14 1 C13.53045739 4.04581269 13.53045739 4.04581269 13.375 7.5625 C13.30023438 8.76003906 13.22546875 9.95757812 13.1484375 11.19140625 C13.09945313 12.11824219 13.05046875 13.04507813 13 14 C12.67 14 12.34 14 12 14 C11.67 9.71 11.34 5.42 11 1 C9.02 1.99 9.02 1.99 7 3 C6.01 3 5.02 3 4 3 C4 2.34 4 1.68 4 1 C2.68 0.67 1.36 0.34 0 0 Z " fill="#716FFB" transform="translate(296,34)"/>
<path d="M0 0 C1.98 0 3.96 0 6 0 C6.33 1.32 6.66 2.64 7 4 C5.02 4.33 3.04 4.66 1 5 C1 5.66 1 6.32 1 7 C-0.32 6.67 -1.64 6.34 -3 6 C-3 4.68 -3 3.36 -3 2 C-2.01 2 -1.02 2 0 2 C0 1.34 0 0.68 0 0 Z " fill="#7776FB" transform="translate(442,120)"/>
<path d="M0 0 C0.66 0.99 1.32 1.98 2 3 C1.5625 5.0625 1.5625 5.0625 1 7 C1.33 7.66 1.66 8.32 2 9 C1.01 9.33 0.02 9.66 -1 10 C-1 9.01 -1 8.02 -1 7 C-1.66 7 -2.32 7 -3 7 C-3 7.66 -3 8.32 -3 9 C-3.99 9 -4.98 9 -6 9 C-5.67 7.02 -5.34 5.04 -5 3 C-4.34 3 -3.68 3 -3 3 C-3 3.66 -3 4.32 -3 5 C-2.34 5 -1.68 5 -1 5 C-0.67 3.35 -0.34 1.7 0 0 Z " fill="#3E3CFA" transform="translate(446,67)"/>
<path d="M0 0 C1.32 0.66 2.64 1.32 4 2 C3.67 2.99 3.34 3.98 3 5 C2.34 5 1.68 5 1 5 C1.495 5.45375 1.99 5.9075 2.5 6.375 C4 8 4 8 4 10 C3.01 10.495 3.01 10.495 2 11 C1.34227572 14.02934491 1.34227572 14.02934491 1 17 C0.67 17 0.34 17 0 17 C-0.19561869 14.9174133 -0.38119313 12.83388144 -0.5625 10.75 C-0.66691406 9.58984375 -0.77132813 8.4296875 -0.87890625 7.234375 C-0.98198087 4.48128523 -0.86213473 2.580018 0 0 Z " fill="#4947FA" transform="translate(346,26)"/>
<path d="M0 0 C2.4294516 3.6441774 2.16179575 5.71241272 2 10 C2.66 10 3.32 10 4 10 C4 11.98 4 13.96 4 16 C2.68 16.33 1.36 16.66 0 17 C-1.05200443 13.84398672 -0.95750119 12.305411 -0.5625 9.0625 C-0.19430794 5.97248309 0 3.12947867 0 0 Z " fill="#6361FB" transform="translate(228,110)"/>
<path d="M0 0 C0.99 0 1.98 0 3 0 C3 4.29 3 8.58 3 13 C2.01 13 1.02 13 0 13 C0 8.71 0 4.42 0 0 Z " fill="#E5E5FE" transform="translate(344,92)"/>
<path d="M0 0 C0.33 1.32 0.66 2.64 1 4 C-1.31 4 -3.62 4 -6 4 C-6.33 4.66 -6.66 5.32 -7 6 C-6.01 5.67 -5.02 5.34 -4 5 C-4 6.65 -4 8.3 -4 10 C-5.32 9.34 -6.64 8.68 -8 8 C-8.1875 5.125 -8.1875 5.125 -8 2 C-4.77208445 -0.1519437 -3.71599191 -0.20086443 0 0 Z " fill="#D9D9FD" transform="translate(345,69)"/>
<path d="M0 0 C3.63 0.33 7.26 0.66 11 1 C10.67 2.65 10.34 4.3 10 6 C9.34 5.01 8.68 4.02 8 3 C4.93443402 2.26656572 4.93443402 2.26656572 2 2 C2.04125 3.2375 2.0825 4.475 2.125 5.75 C2.24851563 9.455469 1.80568106 10.38863788 0 14 C0 9.38 0 4.76 0 0 Z " fill="#B1B1FC" transform="translate(365,34)"/>
<path d="M0 0 C-0.33 0.66 -0.66 1.32 -1 2 C-1.22858114 4.0374763 -1.41024278 6.08040303 -1.5625 8.125 C-1.64628906 9.22070312 -1.73007812 10.31640625 -1.81640625 11.4453125 C-1.87699219 12.28835937 -1.93757813 13.13140625 -2 14 C-2.66 14 -3.32 14 -4 14 C-3.67 9.71 -3.34 5.42 -3 1 C-3.99 1.495 -3.99 1.495 -5 2 C-6.71233688 1.9129796 -8.42175406 1.75902838 -10.125 1.5625 C-11.03507812 1.46066406 -11.94515625 1.35882813 -12.8828125 1.25390625 C-13.58148438 1.17011719 -14.28015625 1.08632813 -15 1 C-15 0.67 -15 0.34 -15 0 C-9.65370398 -1.0024305 -5.37625234 -0.84888195 0 0 Z " fill="#8D8CFB" transform="translate(295,55)"/>
<path d="M0 0 C0.99 0.99 1.98 1.98 3 3 C3 3.99 3 4.98 3 6 C7.62 6 12.24 6 17 6 C17 6.33 17 6.66 17 7 C16.08476562 7.03738281 15.16953125 7.07476562 14.2265625 7.11328125 C13.03804688 7.17902344 11.84953125 7.24476562 10.625 7.3125 C9.44164062 7.37050781 8.25828125 7.42851563 7.0390625 7.48828125 C6.03617187 7.65714844 5.03328125 7.82601562 4 8 C3.01 9.485 3.01 9.485 2 11 C1.34 10.67 0.68 10.34 0 10 C0 6.7 0 3.4 0 0 Z " fill="#BFBFFC" transform="translate(314,113)"/>
<path d="M0 0 C0.33 0 0.66 0 1 0 C1.33 5.28 1.66 10.56 2 16 C2.99 16.33 3.98 16.66 5 17 C5 17.66 5 18.32 5 19 C-1.625 20.25 -1.625 20.25 -5 18 C-3.35 17.67 -1.7 17.34 0 17 C0 11.39 0 5.78 0 0 Z " fill="#8483FB" transform="translate(308,101)"/>
<path d="M0 0 C2.31 0.33 4.62 0.66 7 1 C6.01 1.66 5.02 2.32 4 3 C3.26656572 6.06556598 3.26656572 6.06556598 3 9 C2.34 9 1.68 9 1 9 C1 9.99 1 10.98 1 12 C0.34 12 -0.32 12 -1 12 C-1.33 9.69 -1.66 7.38 -2 5 C-1.01 4.34 -0.02 3.68 1 3 C0.34 3 -0.32 3 -1 3 C-0.67 2.01 -0.34 1.02 0 0 Z " fill="#2927F9" transform="translate(339,72)"/>
<path d="M0 0 C1.32 0 2.64 0 4 0 C4 2.64 4 5.28 4 8 C2.35 7.67 0.7 7.34 -1 7 C-1.04254356 5.00045254 -1.04080783 2.99958364 -1 1 C-0.67 0.67 -0.34 0.34 0 0 Z " fill="#E1E1FD" transform="translate(343,74)"/>
<path d="M0 0 C4 0 8 0 12 0 C11.67 1.65 11.34 3.3 11 5 C10.01 5 9.02 5 8 5 C8 4.34 8 3.68 8 3 C7.34 3 6.68 3 6 3 C5.67 3.66 5.34 4.32 5 5 C5 4.34 5 3.68 5 3 C3.35 3 1.7 3 0 3 C0 2.01 0 1.02 0 0 Z " fill="#302DFA" transform="translate(365,71)"/>
<path d="M0 0 C0.33 0 0.66 0 1 0 C1.73030908 6.21324498 2.23180249 11.84098757 1 18 C0.34 18 -0.32 18 -1 18 C-1.33 13.38 -1.66 8.76 -2 4 C-1.34 4 -0.68 4 0 4 C0 2.68 0 1.36 0 0 Z " fill="#4B49FA" transform="translate(374,51)"/>
<path d="M0 0 C1.54571278 2.31856917 2.79618552 4.50638429 4 7 C3.01 7.495 3.01 7.495 2 8 C1.79029441 12.14093698 1.79029441 12.14093698 3 16 C1.68 16.33 0.36 16.66 -1 17 C-1.02709444 14.91673869 -1.04643873 12.83337559 -1.0625 10.75 C-1.07410156 9.58984375 -1.08570313 8.4296875 -1.09765625 7.234375 C-1.01782092 4.59022872 -0.78643778 2.50173909 0 0 Z " fill="#2725F9" transform="translate(446,49)"/>
<path d="M0 0 C0 3.63 0 7.26 0 11 C-0.33 11 -0.66 11 -1 11 C-2.125 4.25 -2.125 4.25 -1 2 C-2.32 1.67 -3.64 1.34 -5 1 C-5.33 2.98 -5.66 4.96 -6 7 C-6.33 7 -6.66 7 -7 7 C-7 5.35 -7 3.7 -7 2 C-7.66 2 -8.32 2 -9 2 C-9 1.34 -9 0.68 -9 0 C-5.07201633 -2.61865578 -4.9623968 -1.98495872 0 0 Z " fill="#4846FA" transform="translate(274,44)"/>
<path d="M0 0 C0 0.99 0 1.98 0 3 C-0.99 3 -1.98 3 -3 3 C-3 8.94 -3 14.88 -3 21 C-3.33 21 -3.66 21 -4 21 C-4 14.73 -4 8.46 -4 2 C-5.98 2 -7.96 2 -10 2 C-10 1.67 -10 1.34 -10 1 C-6.56484998 0.37542727 -3.50935186 0 0 0 Z " fill="#4F4DFA" transform="translate(416,33)"/>
<path d="M0 0 C2.97 0 5.94 0 9 0 C9 1.98 9 3.96 9 6 C4.75177626 5.52797514 2.80010291 3.03344482 0 0 Z " fill="#F8F8FE" transform="translate(428,56)"/>
<path d="M0 0 C0.99 0 1.98 0 3 0 C2.67 4.95 2.34 9.9 2 15 C1.34 15 0.68 15 0 15 C0 10.05 0 5.1 0 0 Z " fill="#F1F1FE" transform="translate(416,39)"/>
<path d="M0 0 C0.66 0 1.32 0 2 0 C1.67 2.64 1.34 5.28 1 8 C1.66 8 2.32 8 3 8 C3 9.65 3 11.3 3 13 C1.68 13 0.36 13 -1 13 C-0.67 8.71 -0.34 4.42 0 0 Z " fill="#5856FA" transform="translate(301,54)"/>
<path d="M0 0 C0.33 0 0.66 0 1 0 C2.2063366 5.22745859 1.75612577 9.76528314 1 15 C2.32 15.33 3.64 15.66 5 16 C5 16.33 5 16.66 5 17 C3.02 17 1.04 17 -1 17 C-1.02721176 15.10424749 -1.04649136 13.20838021 -1.0625 11.3125 C-1.07410156 10.25675781 -1.08570313 9.20101562 -1.09765625 8.11328125 C-1.00865425 5.27589738 -0.64939838 2.7561081 0 0 Z " fill="#8685FB" transform="translate(251,102)"/>
<path d="M0 0 C0.0825 0.78375 0.165 1.5675 0.25 2.375 C0.72806339 5.14749104 0.72806339 5.14749104 3.0625 6.3125 C3.701875 6.539375 4.34125 6.76625 5 7 C5 7.66 5 8.32 5 9 C3.35 8.67 1.7 8.34 0 8 C-0.33 8.99 -0.66 9.98 -1 11 C-1.98120464 7.94736336 -1.98120464 6.05263664 -1 3 C-1.99 2.67 -2.98 2.34 -4 2 C-1 0 -1 0 0 0 Z " fill="#221FF9" transform="translate(337,27)"/>
<path d="M0 0 C0.66 0.33 1.32 0.66 2 1 C2 1.99 2 2.98 2 4 C3.32 4.33 4.64 4.66 6 5 C0.83430559 6.79217969 -2.51053913 7.12029814 -8 6 C-8 5.67 -8 5.34 -8 5 C-5.69 5 -3.38 5 -1 5 C-0.67 3.35 -0.34 1.7 0 0 Z " fill="#4A48FA" transform="translate(446,114)"/>
<path d="M0 0 C1.5625 1.75 1.5625 1.75 3 4 C2.6875 6.25 2.6875 6.25 2 8 C0.35 8.33 -1.3 8.66 -3 9 C-3 8.34 -3 7.68 -3 7 C-3.66 6.67 -4.32 6.34 -5 6 C-4.01 5.67 -3.02 5.34 -2 5 C-1.34 5.33 -0.68 5.66 0 6 C0 4.02 0 2.04 0 0 Z " fill="#CCCCFD" transform="translate(418,96)"/>
<path d="M0 0 C2.88575819 0.39803561 3.82189513 0.79009069 5.75 3.0625 C6.1625 3.701875 6.575 4.34125 7 5 C4.36 5 1.72 5 -1 5 C-0.67 3.35 -0.34 1.7 0 0 Z " fill="#F1F1FE" transform="translate(397,112)"/>
<path d="M0 0 C1.32 0 2.64 0 4 0 C4 1.98 4 3.96 4 6 C2.68 6.33 1.36 6.66 0 7 C0 4.69 0 2.38 0 0 Z " fill="#3D3BFA" transform="translate(385,75)"/>
<path d="M0 0 C0.66 0.33 1.32 0.66 2 1 C2 6.28 2 11.56 2 17 C1.67 17 1.34 17 1 17 C0.92652344 15.39318359 0.92652344 15.39318359 0.8515625 13.75390625 C0.77654706 12.35674361 0.7009987 10.9596095 0.625 9.5625 C0.5940625 8.85544922 0.563125 8.14839844 0.53125 7.41992188 C0.42719371 5.60760812 0.22080108 3.80182012 0 2 C-0.66 1.67 -1.32 1.34 -2 1 C-1.34 0.67 -0.68 0.34 0 0 Z " fill="#ABAAFC" transform="translate(276,74)"/>
<path d="M0 0 C1.32 0 2.64 0 4 0 C4 0.66 4 1.32 4 2 C3.34 2 2.68 2 2 2 C2 3.32 2 4.64 2 6 C3.65 6 5.3 6 7 6 C7 6.66 7 7.32 7 8 C4.69 8 2.38 8 0 8 C-0.33 7.34 -0.66 6.68 -1 6 C-0.34 6 0.32 6 1 6 C0.67 4.02 0.34 2.04 0 0 Z " fill="#8584FB" transform="translate(266,28)"/>
<path d="M0 0 C1.67542976 0.28604898 3.34385343 0.61781233 5 1 C5 2.32 5 3.64 5 5 C3.35 5 1.7 5 0 5 C-0.5625 3.0625 -0.5625 3.0625 -1 1 C-0.67 0.67 -0.34 0.34 0 0 Z " fill="#7F7EFB" transform="translate(197,122)"/>
<path d="M0 0 C1.65 0 3.3 0 5 0 C5 1.65 5 3.3 5 5 C3.35 5.33 1.7 5.66 0 6 C0 4.02 0 2.04 0 0 Z " fill="#ECECFE" transform="translate(415,94)"/>
<path d="M0 0 C0.33 1.32 0.66 2.64 1 4 C0.34 4 -0.32 4 -1 4 C-1 8.29 -1 12.58 -1 17 C-1.99 16.67 -2.98 16.34 -4 16 C-3.34 16 -2.68 16 -2 16 C-2 11.05 -2 6.1 -2 1 C-1.34 0.67 -0.68 0.34 0 0 Z " fill="#5351FA" transform="translate(341,89)"/>
<path d="M0 0 C1.32 0.33 2.64 0.66 4 1 C4 1.66 4 2.32 4 3 C4.66 3 5.32 3 6 3 C5.67 4.32 5.34 5.64 5 7 C4.67 6.34 4.34 5.68 4 5 C2.68 5.33 1.36 5.66 0 6 C0 4.02 0 2.04 0 0 Z " fill="#D0D0FD" transform="translate(267,37)"/>
<path d="M0 0 C0.33 0.66 0.66 1.32 1 2 C3.01669827 3.13350534 3.01669827 3.13350534 5 4 C1.21812119 5.83691257 -0.94568308 6.15837626 -5 5 C-4.67 4.34 -4.34 3.68 -4 3 C-2.68 3 -1.36 3 0 3 C0 2.01 0 1.02 0 0 Z " fill="#2421FA" transform="translate(317,121)"/>
<path d="M0 0 C0.33 0 0.66 0 1 0 C1.41694996 1.59880813 1.80790856 3.20441261 2.1875 4.8125 C2.51814453 6.15248047 2.51814453 6.15248047 2.85546875 7.51953125 C3 10 3 10 1.55078125 11.82421875 C0.78314453 12.40623047 0.78314453 12.40623047 0 13 C-1.29676812 8.38926889 -0.71109139 4.66159911 0 0 Z " fill="#4341FA" transform="translate(374,96)"/>
<path d="M0 0 C2.31 0 4.62 0 7 0 C7 1.32 7 2.64 7 4 C3.88742431 4 1.89234315 3.82638376 -1 3 C-0.34 2.67 0.32 2.34 1 2 C0.67 1.34 0.34 0.68 0 0 Z " fill="#302EF9" transform="translate(270,99)"/>
<path d="M0 0 C1.32 0 2.64 0 4 0 C4 1.98 4 3.96 4 6 C2.68 6.33 1.36 6.66 0 7 C0 4.69 0 2.38 0 0 Z " fill="#6D6CFB" transform="translate(160,74)"/>
<path d="M0 0 C1.32 0.33 2.64 0.66 4 1 C3.67 2.32 3.34 3.64 3 5 C1.68 5.33 0.36 5.66 -1 6 C-1.33 5.34 -1.66 4.68 -2 4 C-1.0625 1.875 -1.0625 1.875 0 0 Z " fill="#B7B7FC" transform="translate(416,68)"/>
<path d="M0 0 C0.99 0.33 1.98 0.66 3 1 C3 2.65 3 4.3 3 6 C0.36 5.34 -2.28 4.68 -5 4 C-4.67 3.34 -4.34 2.68 -4 2 C-2.68 2 -1.36 2 0 2 C0 1.34 0 0.68 0 0 Z " fill="#7D7CFB" transform="translate(235,60)"/>
<path d="M0 0 C0.33 1.32 0.66 2.64 1 4 C1.66 4 2.32 4 3 4 C3.33 5.65 3.66 7.3 4 9 C2.68 9.33 1.36 9.66 0 10 C0 6.7 0 3.4 0 0 Z " fill="#DBDAFD" transform="translate(363,45)"/>
<path d="M0 0 C0 2.31 0 4.62 0 7 C-1.65 7 -3.3 7 -5 7 C-4.53479806 4.30182875 -3.4249099 0 0 0 Z " fill="#C8C7FD" transform="translate(193,27)"/>
<path d="M0 0 C0 0.99 0 1.98 0 3 C-6.93 2.505 -6.93 2.505 -14 2 C-14 1.67 -14 1.34 -14 1 C-4.58997722 -0.14806378 -4.58997722 -0.14806378 0 0 Z " fill="#3E3CFA" transform="translate(422,122)"/>
<path d="M0 0 C0.33 0 0.66 0 1 0 C1 2.97 1 5.94 1 9 C0.01 8.67 -0.98 8.34 -2 8 C-1.125 1.125 -1.125 1.125 0 0 Z " fill="#F5F5FE" transform="translate(436,108)"/>
<path d="M0 0 C0 3 0 3 -2 5.1875 C-2.66 5.785625 -3.32 6.38375 -4 7 C-4.66 6.67 -5.32 6.34 -6 6 C-4.95125002 3.37812506 -4.35068687 2.20628639 -1.875 0.75 C-1.25625 0.5025 -0.6375 0.255 0 0 Z " fill="#5352FA" transform="translate(120,87)"/>
<path d="M0 0 C0.66 0 1.32 0 2 0 C2 0.66 2 1.32 2 2 C2.99 2 3.98 2 5 2 C5 1.34 5 0.68 5 0 C5.66 0 6.32 0 7 0 C7 1.32 7 2.64 7 4 C4.69 4 2.38 4 0 4 C0 2.68 0 1.36 0 0 Z " fill="#D9D9FD" transform="translate(438,74)"/>
<path d="M0 0 C0.66 0.33 1.32 0.66 2 1 C1.6875 2.875 1.6875 2.875 1 5 C-2 7 -2 7 -4.1875 6.625 C-4.785625 6.41875 -5.38375 6.2125 -6 6 C-4.68 4.68 -3.36 3.36 -2 2 C-1.34 2.33 -0.68 2.66 0 3 C0 2.01 0 1.02 0 0 Z " fill="#A5A5FC" transform="translate(375,66)"/>
<path d="M0 0 C0.99 0.495 0.99 0.495 2 1 C2.4140625 3.06640625 2.4140625 3.06640625 2.625 5.5625 C2.69976562 6.38878906 2.77453125 7.21507812 2.8515625 8.06640625 C2.92503906 9.02353516 2.92503906 9.02353516 3 10 C2.01 10.33 1.02 10.66 0 11 C0 7.37 0 3.74 0 0 Z " fill="#7877FB" transform="translate(395,56)"/>
<path d="M0 0 C0.66 0 1.32 0 2 0 C1.67 2.64 1.34 5.28 1 8 C-1.97 7.505 -1.97 7.505 -5 7 C-5 6.34 -5 5.68 -5 5 C-2.525 5.495 -2.525 5.495 0 6 C0 4.02 0 2.04 0 0 Z " fill="#4745FA" transform="translate(26,112)"/>
<path d="M0 0 C0.99 0.33 1.98 0.66 3 1 C2.6875 2.9375 2.6875 2.9375 2 5 C1.01 5.33 0.02 5.66 -1 6 C-1 5.34 -1 4.68 -1 4 C-1.66 4 -2.32 4 -3 4 C-3 3.34 -3 2.68 -3 2 C-2.34 2 -1.68 2 -1 2 C-0.67 1.34 -0.34 0.68 0 0 Z " fill="#413FFA" transform="translate(57,27)"/>
<path d="M0 0 C0.99 0.33 1.98 0.66 3 1 C3.33 1.99 3.66 2.98 4 4 C1.6875 4.6875 1.6875 4.6875 -1 5 C-2.8125 3.5625 -2.8125 3.5625 -4 2 C-2.68 2 -1.36 2 0 2 C0 1.34 0 0.68 0 0 Z " fill="#2926FA" transform="translate(246,121)"/>
<path d="M0 0 C0.40863281 0.50144531 0.81726563 1.00289063 1.23828125 1.51953125 C-0.21964759 1.57352861 -1.67814587 1.61232302 -3.13671875 1.64453125 C-3.94882812 1.66773437 -4.7609375 1.6909375 -5.59765625 1.71484375 C-7.76171875 1.51953125 -7.76171875 1.51953125 -9.76171875 -0.48046875 C-2.1953726 -1.84489183 -2.1953726 -1.84489183 0 0 Z " fill="#9B9AFC" transform="translate(405.76171875,117.48046875)"/>
<path d="M0 0 C3 3 3 3 3.1875 6.1875 C3.0946875 7.5796875 3.0946875 7.5796875 3 9 C2.01 9 1.02 9 0 9 C0 6.03 0 3.06 0 0 Z " fill="#EFEFFE" transform="translate(252,108)"/>
<path d="M0 0 C1.98 0.495 1.98 0.495 4 1 C3.67 2.32 3.34 3.64 3 5 C1.68 4.67 0.36 4.34 -1 4 C-0.67 2.68 -0.34 1.36 0 0 Z " fill="#5553FA" transform="translate(373,88)"/>
<path d="M0 0 C1.32 0.33 2.64 0.66 4 1 C4 2.65 4 4.3 4 6 C2.68 6 1.36 6 0 6 C0 4.02 0 2.04 0 0 Z " fill="#6B6AFB" transform="translate(20,76)"/>
<path d="M0 0 C1.32 0.33 2.64 0.66 4 1 C3.67 2.65 3.34 4.3 3 6 C3.99 6.33 4.98 6.66 6 7 C4.68 7.33 3.36 7.66 2 8 C0.74335022 5.09399739 0 3.20395416 0 0 Z " fill="#3E3CFA" transform="translate(435,62)"/>
<path d="M0 0 C1.61949011 2.57213134 2.04408751 3.67669159 1.625 6.75 C1.41875 7.4925 1.2125 8.235 1 9 C0.34 9 -0.32 9 -1 9 C-1.625 6.1875 -1.625 6.1875 -2 3 C-1.34 2.01 -0.68 1.02 0 0 Z " fill="#2A27FA" transform="translate(370,51)"/>
<path d="M0 0 C3.125 0.375 3.125 0.375 6 1 C6 1.66 6 2.32 6 3 C5.34 3 4.68 3 4 3 C3.67 3.66 3.34 4.32 3 5 C1.35 4.01 -0.3 3.02 -2 2 C-1.34 1.34 -0.68 0.68 0 0 Z " fill="#1713F9" transform="translate(362,27)"/>
<path d="M0 0 C0.33 0 0.66 0 1 0 C1.22162329 1.62324086 1.42689803 3.248721 1.625 4.875 C1.74101562 5.77992187 1.85703125 6.68484375 1.9765625 7.6171875 C1.98429687 8.40351562 1.99203125 9.18984375 2 10 C1.34 10.66 0.68 11.32 0 12 C0 11.01 0 10.02 0 9 C-0.66 8.67 -1.32 8.34 -2 8 C-1.34 8 -0.68 8 0 8 C0 5.36 0 2.72 0 0 Z " fill="#4442FA" transform="translate(301,92)"/>
<path d="M0 0 C0.99 0 1.98 0 3 0 C3.33 1.65 3.66 3.3 4 5 C2.68 5.33 1.36 5.66 0 6 C0 4.02 0 2.04 0 0 Z " fill="#6160FA" transform="translate(307,75)"/>
<path d="M0 0 C1.32 0.33 2.64 0.66 4 1 C3.1654738 3.50357861 2.20628008 5.66785852 1 8 C0.67 8 0.34 8 0 8 C0 5.36 0 2.72 0 0 Z " fill="#C7C7FD" transform="translate(397,57)"/>
<path d="M0 0 C0.99 0.33 1.98 0.66 3 1 C3.1875 3.375 3.1875 3.375 3 6 C2.01 6.66 1.02 7.32 0 8 C0 5.36 0 2.72 0 0 Z " fill="#F3F3FE" transform="translate(274,38)"/>
<path d="M0 0 C3.63 0.33 7.26 0.66 11 1 C10.67 2.65 10.34 4.3 10 6 C9.34 5.01 8.68 4.02 8 3 C6.03638136 2.42251197 6.03638136 2.42251197 3.875 2.3125 C2.59625 2.209375 1.3175 2.10625 0 2 C0 1.34 0 0.68 0 0 Z " fill="#4B49FA" transform="translate(365,34)"/>
<path d="M0 0 C1.9375 0.625 1.9375 0.625 4 2 C4.75 5.125 4.75 5.125 5 8 C4.01 8.495 4.01 8.495 3 9 C2.01 8.67 1.02 8.34 0 8 C0 7.34 0 6.68 0 6 C0.99 6 1.98 6 3 6 C3 5.01 3 4.02 3 3 C2.01 2.67 1.02 2.34 0 2 C0 1.34 0 0.68 0 0 Z " fill="#908FFB" transform="translate(359,28)"/>
<path d="M0 0 C0.33 0.66 0.66 1.32 1 2 C-1.64 2 -4.28 2 -7 2 C-7.33 1.34 -7.66 0.68 -8 0 C-5.09660535 -1.45169732 -3.09125158 -0.72348441 0 0 Z " fill="#2826F9" transform="translate(323,28)"/>
<path d="M0 0 C0.33 0.99 0.66 1.98 1 3 C3.00016466 4.20882096 3.00016466 4.20882096 5 5 C3.02 5.99 3.02 5.99 1 7 C0.67 6.01 0.34 5.02 0 4 C-0.66 3.67 -1.32 3.34 -2 3 C-1.34 2.01 -0.68 1.02 0 0 Z " fill="#0B08F9" transform="translate(301,115)"/>
<path d="M0 0 C0.99 0 1.98 0 3 0 C3.625 1.8125 3.625 1.8125 4 4 C3.01 5.485 3.01 5.485 2 7 C0.5393715 4.35261084 0 3.10551666 0 0 Z " fill="#E1E1FD" transform="translate(442,93)"/>
<path d="M0 0 C3.3 0 6.6 0 10 0 C9.67 1.65 9.34 3.3 9 5 C8.34 3.68 7.68 2.36 7 1 C4.69 1 2.38 1 0 1 C0 0.67 0 0.34 0 0 Z " fill="#514FFA" transform="translate(438,78)"/>
<path d="M0 0 C2.31 0.33 4.62 0.66 7 1 C6.01 1.66 5.02 2.32 4 3 C3.01 4.485 3.01 4.485 2 6 C1.67 5.01 1.34 4.02 1 3 C0.34 3 -0.32 3 -1 3 C-0.67 2.01 -0.34 1.02 0 0 Z " fill="#4341FA" transform="translate(339,72)"/>
<path d="M0 0 C1.62463842 -0.05395478 3.24978541 -0.09277195 4.875 -0.125 C5.77992188 -0.14820313 6.68484375 -0.17140625 7.6171875 -0.1953125 C10 0 10 0 12 2 C8.7 2.33 5.4 2.66 2 3 C1.34 2.01 0.68 1.02 0 0 Z " fill="#7978FB" transform="translate(425,54)"/>
<path d="M0 0 C2.64 0 5.28 0 8 0 C8 0.66 8 1.32 8 2 C4.71303767 2.79953138 3.28976808 3.09658936 0 2 C0 1.34 0 0.68 0 0 Z " fill="#E7E7FE" transform="translate(413,31)"/>
<path d="M0 0 C2.475 0.495 2.475 0.495 5 1 C3.625 3.5 3.625 3.5 2 6 C1.34 6 0.68 6 0 6 C0 4.02 0 2.04 0 0 Z " fill="#6463FA" transform="translate(170,27)"/>
<path d="M0 0 C1.98 0.495 1.98 0.495 4 1 C4 1.99 4 2.98 4 4 C2.35 3.67 0.7 3.34 -1 3 C-0.67 2.01 -0.34 1.02 0 0 Z " fill="#4846FA" transform="translate(271,121)"/>
<path d="M0 0 C1.98 0.495 1.98 0.495 4 1 C4 1.66 4 2.32 4 3 C4.66 3.33 5.32 3.66 6 4 C3.69 4 1.38 4 -1 4 C-0.67 2.68 -0.34 1.36 0 0 Z " fill="#1916FA" transform="translate(160,115)"/>
<path d="M0 0 C0.33 0.66 0.66 1.32 1 2 C1.99 2.33 2.98 2.66 4 3 C3.67 3.99 3.34 4.98 3 6 C1.68 5.34 0.36 4.68 -1 4 C-0.67 2.68 -0.34 1.36 0 0 Z " fill="#4E4CFA" transform="translate(268,84)"/>
<path d="M0 0 C0.33 0 0.66 0 1 0 C1 2.31 1 4.62 1 7 C-0.32 7.33 -1.64 7.66 -3 8 C-2.01 5.36 -1.02 2.72 0 0 Z " fill="#2E2BFA" transform="translate(121,80)"/>
<path d="M0 0 C0.66 0 1.32 0 2 0 C2 1.98 2 3.96 2 6 C1.01 6 0.02 6 -1 6 C-1.33 4.68 -1.66 3.36 -2 2 C-1.34 2 -0.68 2 0 2 C0 1.34 0 0.68 0 0 Z " fill="#3532FA" transform="translate(274,77)"/>
<path d="M0 0 C1.32 0.33 2.64 0.66 4 1 C3.34 1.66 2.68 2.32 2 3 C1.54188325 4.97235333 1.54188325 4.97235333 1.375 7.125 C1.25125 8.40375 1.1275 9.6825 1 11 C0.67 11 0.34 11 0 11 C0 7.37 0 3.74 0 0 Z " fill="#8F8EFB" transform="translate(186,62)"/>
<path d="M0 0 C1.32 0 2.64 0 4 0 C4 1.65 4 3.3 4 5 C2.68 5 1.36 5 0 5 C0 3.35 0 1.7 0 0 Z " fill="#3533FA" transform="translate(445,43)"/>
</svg>
