<?xml version="1.0" encoding="UTF-8" standalone="no"?>
<svg
   xmlns:dc="http://purl.org/dc/elements/1.1/"
   xmlns:cc="http://creativecommons.org/ns#"
   xmlns:rdf="http://www.w3.org/1999/02/22-rdf-syntax-ns#"
   xmlns:svg="http://www.w3.org/2000/svg"
   xmlns="http://www.w3.org/2000/svg"
   xmlns:sodipodi="http://sodipodi.sourceforge.net/DTD/sodipodi-0.dtd"
   xmlns:inkscape="http://www.inkscape.org/namespaces/inkscape"
   viewBox="0 0 244.16 278.99701"
   height="278.99701"
   width="244.16"
   xml:space="preserve"
   version="1.1"
   id="svg2"
   sodipodi:docname="logo.svg"
   inkscape:version="0.92.2 (5c3e80d, 2017-08-06)"><sodipodi:namedview
     pagecolor="#000000"
     bordercolor="#666666"
     borderopacity="1"
     objecttolerance="10"
     gridtolerance="10"
     guidetolerance="10"
     inkscape:pageopacity="0"
     inkscape:pageshadow="2"
     inkscape:window-width="1918"
     inkscape:window-height="1158"
     id="namedview8"
     showgrid="false"
     inkscape:zoom="2.3925303"
     inkscape:cx="144.30252"
     inkscape:cy="129.47016"
     inkscape:window-x="1280"
     inkscape:window-y="20"
     inkscape:window-maximized="0"
     inkscape:current-layer="svg2" /><metadata
     id="metadata8"><rdf:RDF><cc:Work
         rdf:about=""><dc:format>image/svg+xml</dc:format><dc:type
           rdf:resource="http://purl.org/dc/dcmitype/StillImage" /><dc:title></dc:title></cc:Work></rdf:RDF></metadata><defs
     id="defs6" /><g
     transform="matrix(1.25,0,0,-1.25,0,278.997)"
     id="g10"
     style="stroke:none;fill:#ffffff;fill-opacity:1"><g
       transform="scale(0.1)"
       id="g12"
       style="stroke:none;fill:#ffffff;fill-opacity:1"><path
         id="path18"
         d="m 1312.2486,2231.9763 c -30.57,-1.82 -60.5544,-9.1844 -88.4844,-21.7344 -23.9,-10.53 -44.798,-26.8375 -60.828,-47.4375 -18.92,-26.06 -28.6463,-57.6693 -27.6563,-89.8593 -0.4704,-30.83 1.6987,-61.6394 6.4687,-92.1094 2.65,-18.58 8.5194,-36.5806 17.3594,-53.1406 5.94,-10.77 14.66,-19.7344 25.25,-25.9844 9.42,-5.1 19.585,-8.7019 30.125,-10.6719 13.92,-2.66 28.2094,-2.6037 42.1094,0.1562 19.02,3.51 37.0856,10.9988 53.0156,21.9688 20.34,14.27 37.015,33.1606 48.625,55.1406 16.05,31.02 25.845,64.9031 28.875,99.7031 2.16,18.37 2.885,36.8794 2.125,55.3594 -0.54,13.92 -2.5544,27.75 -5.9844,41.25 -4.13,18.34 -13.3593,35.1444 -26.6093,48.4844 -11.86,11.7 -27.7307,18.455 -44.3907,18.875 z m -227.4844,-368.4062 c -12.0962,-0.22 -24.1787,-0.9976 -36.2187,-2.3126 -18.57,-2.01 -36.8544,-6.1424 -54.48439,-12.3124 -25.32096,-8.41 -47.85608,-23.5582 -65.20312,-43.8282 -16.23096,-19.18 -25.87176,-43.0706 -27.46872,-68.1406 21.75,20.84 45.9336,38.9925 72.0156,54.0625 21.93504,13.01 45.83133,22.335 70.78133,27.625 25.77,5.58 52.6393,2.9825 76.8593,-7.4375 13.88,-6.85 25.9194,-16.9194 35.1094,-29.3594 11.98,-15.71 22.1231,-32.7512 30.2031,-50.7812 10.01,-21.85 18.7026,-44.2706 26.0626,-67.1406 8.4099,-25.89 15.9987,-52.0363 22.7187,-78.4063 14.12,-56.5 26.9431,-113.3106 38.4531,-170.3906 10.33,-51.78 21.7682,-103.3294 34.3282,-154.6094 50.5899,-194.4 104.7699,-387.85506 162.5,-580.25002 33.5,-112.718 70.1518,-224.46504 109.9218,-335.12504 15.06,-41.72696 31.75,-82.86384 50,-123.29688 6.77,-14.864 14.1887,-29.4256 22.2187,-43.64056 5.67,-10.27 12.2769,-19.97744 19.7969,-28.9844 22.79,-25.91104 51.17,-46.30048 83,-59.625037 27.86,-11.60928 57.2826,-19.00784 87.3125,-21.96872 32.29,-3.54304 64.9201,-2.74216 97,2.39064 8.38,9.34768 13.2094,21.36672 13.6094,33.921837 -0.4104,8.69904 -4.0081,16.92992 -10.0781,23.17192 -7.66,7.80096 -16.9588,13.80808 -27.2188,17.57808 -18.74,-2.082 -37.6806,-1.18376 -56.1406,2.65624 -45.85,9.062 -88.27,30.70368 -122.5,62.51568 -13.41,13.23096 -24.5713,28.56256 -33.0313,45.39056 -12.48,23.586 -23.4525,47.94952 -32.8125,72.93752 -24.94,67.516 -46.9306,136.0856 -65.8906,205.51568 -22.92,82.13296 -45.455,164.35544 -67.625,246.68744 -21.77,81.18 -45.4568,161.83264 -71.0468,241.89066 -12.89,40 -24.2538,80.4894 -34.0938,121.3594 -15.94,67.56 -31.1044,135.3088 -45.4844,203.2188 -14.35,67.88 -30.305,135.4112 -47.875,202.5312 -10.84,40.64 -23.6606,80.735 -38.3906,120.125 -12.57,34.11 -28.3719,66.9213 -47.1718,98.0313 -15.31,25.88 -35.3088,48.69 -58.9688,67.25 -21.35,16.35 -47.0663,26.0156 -73.9063,27.7656 -12.075,0.875 -24.1849,1.2044 -36.2813,0.9844 z m 3.4844,-94.4219 c -73.73,-115.56 -142.09821,-234.4625 -204.90621,-356.3125 -31.13704,-60.33 -59.38328,-122.0994 -84.65624,-185.1094 -20.64101,-51.48 -40.02764,-103.445 -58.14064,-155.875 -6.922,-20.38 -13.11649,-40.9982 -18.56249,-61.8282 -4.51901,-17.092 -7.90626,-34.45336 -10.15626,-51.98432 -1.882,-14.188 -2.137,-28.55488 -0.75,-42.79688 1.16,-11.91104 4.46438,-23.508 9.73438,-34.25 5.168,-10.172 12.39475,-19.14904 21.21875,-26.37504 10.157,-8.15296 21.547,-14.63288 33.75,-19.17184 15.25002,-5.074 31.69178,-5.3436 47.09378,-0.7656 20.238,5.46096 39.72256,13.4016 58.0156,23.64056 22.164,12.09 43.69496,25.316 64.5,39.62504 22.44896,15.34 44.62024,31.06184 66.53133,47.17184 l 64.1249,46.31256 c 18.5,13.22608 37.6056,25.58568 57.2656,37.01568 14.27,8.72 29.7744,15.2112 45.9844,19.2812 5.71,1.28 11.6151,1.4094 17.375,0.3592 4.95,-0.98 9.4394,-3.5088 12.8594,-7.2188 1.88,-2.14 3.2319,-4.6987 3.9219,-7.4687 0.92,-3.56 1.3524,-7.2106 1.3124,-10.8906 -0.26,-10.51 -1.718,-20.9703 -4.328,-31.1563 -8.3,-31.77 -18.6332,-62.97328 -30.9532,-93.40624 l -23.3906,-58.62504 c -27.9,-67.148 -55.4013,-134.46088 -82.5313,-201.92184 -18,-45.47304 -34.4187,-91.56288 -49.2187,-138.17184 -13.16,-40.51608 -23.0525,-82.0124 -29.56249,-124.10944 -2.52,-17.30496 -3.65504,-34.79624 -3.37504,-52.2812 0.14,-14.66 2.28936,-29.22656 6.35936,-43.31256 3.45997,-12.02 9.50877,-23.13248 17.71877,-32.56248 8.35,-9.18296 18.9176,-16.074 30.6875,-20 21.5,-7.898 44.11,-12.35112 67,-13.20312 17.7001,-0.5696 35.3463,2.37848 51.9063,8.68752 27.86,11.582 51.1094,32.07 66.1094,58.25 18.75,32.62096 30.5462,68.75824 34.6562,106.15624 -20.2,-18.78896 -42.5256,-35.17552 -66.5156,-48.81248 -16.93,-10.132 -35.9862,-16.204 -55.6563,-17.75 -18.88,-0.996 -36.715,8.69976 -46.125,25.09376 -3.2,5.63296 -5.1431,11.89072 -5.7031,18.34376 -0.93,8.78496 -0.9706,17.64448 -0.1408,26.43744 2.53,24.558 7.085,48.86392 13.625,72.67192 18.09,65.438 39.3756,129.96408 63.7656,193.32808 12.83,34.34704 25.8819,68.60928 39.1719,102.78128 22.78,57.36296 44.6594,115.0856 65.6094,173.14064 6.29,17.14 11.4587,34.67536 15.4687,52.48432 l 7.1094,37.04688 c 2.22,11.69 3.6988,23.5051 4.4688,35.3751 0.7696,10.28 -0.082,20.6362 -2.5313,30.6562 -2.2,8.88 -7.0362,16.8563 -13.9062,22.9063 -8.52,6.79 -18.8219,11.0162 -29.6719,12.1562 -16.58,1.92 -33.3612,1.375 -49.7812,-1.625 -25.18,-4.28 -50.0113,-10.4475 -74.2813,-18.4375 -34.9,-11.3 -69.3107,-24.0656 -103.1407,-38.2656 -31.34997,-13.56 -63.68797,-24.6757 -96.74997,-33.2657 -10.81696,-2.68 -21.85576,-4.44 -32.96872,-5.25 -7.98904,-0.66 -16.03112,-0.048 -23.82816,1.8126 -11.746,2.49 -20.96896,11.5868 -23.62496,23.2968 -1.594,6.78 -2.10568,13.7788 -1.5156,20.7188 0.68,8.85 2.09368,17.63 4.21872,26.25 5.898,22.98 13.30088,45.5525 22.17184,67.5625 l 16.26568,40.5469 18.57808,44.5312 c 29.88304,68.91 56.68776,139.1319 80.34376,210.4219 16.97103,54.69 35.60623,108.8406 55.90623,162.3906 8.43,22.12 17.7756,43.8844 28.0157,65.2344 4.9399,8.88 8.4643,18.4831 10.4843,28.4531 2.07,17.28 3.1838,34.6625 3.3438,52.0625 z M 822.18615,1400.3669 c -101.05001,-42.84 -197.90639,-94.935 -289.35939,-155.625 -97.453,-63.89 -187.6725,-138.1781 -269.0625,-221.5781 -39.84,-41.13006 -76.67212,-85.06638 -110.20312,-131.48438 -32.602,-45.05104 -61.078429,-92.95704 -85.078129,-143.12504 -23.3984,-48.902 -41.2578,-100.26864 -53.25,-153.14064 C 3.3072111,542.43774 -1.6537089,488.12486 0.48301108,433.86686 2.1861015,369.14086 15.697886,305.28478 40.342386,245.41374 61.471286,194.87774 92.622887,149.14062 131.90489,110.96062 204.89689,41.480543 301.30314,1.933263 402.06114,0.132543 c 91.714,-2.12112 182.226,21.18752 261.5,67.35936 62.027,36.066397 117.35912,82.554477 163.57813,137.437517 44.43696,54.094 80.92536,114.26184 108.35936,178.67184 15.53904,36.02696 27.598,73.45728 36,111.78128 8.45304,38.078 11.72672,77.12112 9.71872,116.07808 -0.2376,6.90704 -1.03856,13.78552 -2.39056,20.56248 -0.2152,0.906 -0.488,1.78928 -0.82816,2.65632 -0.2304,0.6208 -0.5432,1.21496 -0.93752,1.75 -0.2656,0.3752 -0.6368,0.656 -1.06248,0.82808 -0.3872,0.1328 -0.80848,0.136 -1.18752,-0.016 -0.492,-0.196 -0.94608,-0.4888 -1.32808,-0.85936 -0.54,-0.5112 -1.03176,-1.06992 -1.4688,-1.67192 -1.278,-1.78896 -2.41824,-3.6756 -3.40624,-5.64064 -7.532,-16 -14.57032,-32.23024 -21.10936,-48.65624 -17.734,-42.78496 -38.28096,-84.34384 -61.5,-124.42184 -19.61296,-33.36 -42.09752,-64.94928 -67.18752,-94.40624 -27.386,-32.19904 -58.67522,-60.84792 -93.15622,-85.29688 -37.695,-26.57504 -79.35913,-47.00328 -123.45313,-60.53128 -51.218,-15.35896 -104.6295,-22.1604 -158.0625,-20.10936 -27.11,0.656 -54.11812,3.6836 -80.70312,9.0156 -22.594,4.52304 -44.61312,11.476 -65.70312,20.75 -35.914,15.44904 -67.14876,40.03152 -90.59376,71.31256 -21.797,30.312 -36.49212,65.16344 -42.95312,101.93744 -7.113,40.148 -8.2615,81.10976 -3.4375,121.59376 5.039,44.25 14.375,87.9108 27.875,130.34376 13.805,43.918 30.86025,86.746 51.03125,128.12504 19.274,39.82792 41.33525,78.24968 66.03125,114.96872 21.55,32.38696 45.92937,62.80096 72.85937,90.87496 50.699,51.16912 103.6525,100.02442 158.68751,146.48442 51.019,43.18 102.46112,85.84 154.32812,128 21.082,17.24 41.95762,34.7175 62.64062,52.4375 15.895,13.5 31.27375,27.5856 46.09375,42.2656 9.52304,8.87 17.7376,19.06 24.39064,30.25 0.898,1.73 1.59776,3.5632 2.09376,5.4532 0.4032,1.49 0.504,3.0481 0.328,4.5781 -0.4184,2.83 -2.28488,5.2181 -4.92184,6.3281 z m 755.32805,-111.3594 c -4.2712,-0.056 -8.5362,-0.268 -12.8124,-0.6408 -15.83,-0.93 -30.8807,-7.2249 -42.6407,-17.8749 -10.76,-9.91 -19.4762,-21.8338 -25.6562,-35.0938 -7.57,-15.76 -12.9094,-32.5044 -15.8594,-49.7344 -3.96,-20.95 -3.1337,-42.5193 2.4063,-63.1093 4.74,-17.26 14.9875,-32.5063 29.1875,-43.4063 8.8,-6.48 18.6887,-11.3269 29.2187,-14.2969 13.63,-3.79 27.7406,-5.6218 41.8906,-5.4218 14.42,-0.1104 28.8138,0.8043 43.0938,2.7343 10.91,1.45 21.6344,4.0838 31.9844,7.8438 15.26,5.07 28.3743,15.1325 37.2343,28.5625 7.41,12.75 11.7407,27.0612 12.6407,41.7812 1.25,16.73 1.6812,33.5056 1.2812,50.2656 0.2,16.07 -4.2312,31.8488 -12.7812,45.4688 -8.48,12.98 -19.9307,23.7588 -33.3907,31.4688 -26.3287,14.4812 -55.8984,21.8374 -85.7969,21.4531 z"
         style="fill:#ffffff;fill-opacity:1;fill-rule:evenodd;stroke:none;stroke-width:1" /></g></g></svg>