<svg xmlns="http://www.w3.org/2000/svg" viewBox="0 0 400 450" width="400" height="450">
  <defs>
    <linearGradient id="velGradS" x1="0%" y1="0%" x2="100%" y2="100%">
      <stop offset="0%" stop-color="#FF6B00"/>
      <stop offset="100%" stop-color="#FF2D78"/>
    </linearGradient>
  </defs>
  <rect width="400" height="450" fill="#0A0A0F"/>

  <!-- Large centered glyph -->
  <g transform="translate(110,15)">
    <path d="M 90 10 L 165 42 L 175 148 Q 140 200 90 200 Q 40 200 5 148 L 15 42 Z"
          fill="none" stroke="url(#velGradS)" stroke-width="4"/>

    <circle cx="90" cy="48" r="9" fill="#FF6B00"/>
    <circle cx="55" cy="95" r="9" fill="#FF5040"/>
    <circle cx="125" cy="95" r="9" fill="#FF2D78"/>
    <circle cx="90" cy="148" r="9" fill="#FF2D78"/>

    <circle cx="70" cy="66" r="5" fill="#FF6B00" opacity="0.6"/>
    <circle cx="110" cy="66" r="5" fill="#FF2D78" opacity="0.6"/>
    <circle cx="70" cy="125" r="5" fill="#FF2D78" opacity="0.5"/>
    <circle cx="110" cy="125" r="5" fill="#FF6B00" opacity="0.5"/>

    <line x1="90" y1="48" x2="55" y2="95" stroke="#FF6B00" stroke-width="3"/>
    <line x1="90" y1="48" x2="125" y2="95" stroke="#FF2D78" stroke-width="3"/>
    <line x1="55" y1="95" x2="90" y2="148" stroke="#FF2D78" stroke-width="3"/>
    <line x1="125" y1="95" x2="90" y2="148" stroke="#FF6B00" stroke-width="3"/>

    <line x1="90" y1="48" x2="70" y2="66" stroke="#FF6B00" stroke-width="2" opacity="0.5"/>
    <line x1="90" y1="48" x2="110" y2="66" stroke="#FF2D78" stroke-width="2" opacity="0.5"/>
    <line x1="55" y1="95" x2="70" y2="125" stroke="#FF2D78" stroke-width="2" opacity="0.4"/>
    <line x1="125" y1="95" x2="110" y2="125" stroke="#FF6B00" stroke-width="2" opacity="0.4"/>
    <line x1="70" y1="125" x2="90" y2="148" stroke="#FF5040" stroke-width="1.5" opacity="0.4"/>
    <line x1="110" y1="125" x2="90" y2="148" stroke="#FF5040" stroke-width="1.5" opacity="0.4"/>

    <line x1="55" y1="95" x2="125" y2="95" stroke="#FF5040" stroke-width="1" opacity="0.3" stroke-dasharray="4,3"/>
  </g>

  <!-- Gradient accent line -->
  <line x1="80" y1="240" x2="320" y2="240" stroke="url(#velGradS)" stroke-width="2"/>

  <!-- IOTONE -->
  <text x="200" y="290" text-anchor="middle" fill="#F0F0F5" font-family="'Eurostile','Orbitron','Exo 2',sans-serif" font-size="42" font-weight="700" letter-spacing="0.12em">IOTONE</text>

  <!-- Katakana -->
  <text x="200" y="330" text-anchor="middle" fill="#8B8B99" font-family="'Noto Sans JP','M PLUS 1p','Hiragino Kaku Gothic Pro',sans-serif" font-size="18" letter-spacing="0.15em">&#12450;&#12452;&#12458;&#12540;&#12488;&#12540;&#12531; &#12472;&#12515;&#12497;&#12531;</text>

  <!-- Gradient divider -->
  <line x1="120" y1="350" x2="280" y2="350" stroke="#2A2D3A" stroke-width="1"/>

  <!-- Tagline -->
  <text x="200" y="380" text-anchor="middle" fill="#4A8B99" font-family="'Inter','DM Sans',sans-serif" font-size="11" letter-spacing="0.15em">UNIFIED HUMAN INTELLIGENCE</text>

  <!-- Location -->
  <text x="200" y="420" text-anchor="middle" fill="#2A2D3A" font-family="'Inter','DM Sans',sans-serif" font-size="9" letter-spacing="0.1em">FUKUOKA, JAPAN</text>
</svg>
